<svg id="svg" version="1.1" xmlns="http://www.w3.org/2000/svg" xmlns:xlink="http://www.w3.org/1999/xlink" width="400" height="400" viewBox="0, 0, 400,400"><g id="svgg"><path id="path0" d="M192.759 125.375 C 192.626 125.507,190.916 125.791,188.959 126.006 C 184.355 126.512,180.998 127.052,179.000 127.608 C 178.120 127.853,176.770 128.198,176.000 128.376 C 167.657 130.299,156.912 136.662,150.968 143.200 C 145.846 148.833,141.266 157.172,138.774 165.400 C 138.507 166.280,138.153 167.360,137.986 167.800 C 137.820 168.240,137.470 169.680,137.209 171.000 C 136.948 172.320,136.581 174.120,136.393 175.000 C 135.973 176.970,135.314 181.492,134.793 185.990 C 133.372 198.243,134.806 223.458,137.580 235.000 C 137.791 235.880,138.076 237.140,138.212 237.800 C 138.349 238.460,138.606 239.360,138.785 239.800 C 138.963 240.240,139.342 241.410,139.627 242.400 C 147.547 269.932,175.834 280.507,223.000 273.569 C 233.024 272.095,245.793 269.309,249.600 267.765 L 251.800 266.873 251.902 231.637 L 252.004 196.400 223.802 196.400 L 195.600 196.400 195.600 205.000 L 195.600 213.600 214.600 213.600 L 233.600 213.600 233.600 233.757 C 233.600 252.583,233.554 253.933,232.900 254.189 C 231.916 254.575,225.408 255.785,221.000 256.401 C 212.357 257.610,209.795 257.775,199.800 257.770 C 176.140 257.758,166.808 253.720,160.121 240.600 C 158.531 237.482,158.104 236.281,156.810 231.300 C 156.315 229.393,155.376 223.699,154.749 218.800 C 154.060 213.414,154.048 190.139,154.733 185.000 C 155.310 180.666,156.635 173.608,157.173 172.000 C 157.357 171.450,157.739 170.190,158.023 169.200 C 158.307 168.210,158.688 167.229,158.870 167.020 C 159.051 166.811,159.200 166.411,159.200 166.132 C 159.200 164.929,161.862 160.004,164.244 156.800 C 168.329 151.305,175.285 146.976,183.400 144.879 C 184.280 144.652,185.720 144.280,186.600 144.054 C 190.189 143.129,192.916 143.002,209.000 143.012 C 223.740 143.021,236.939 143.512,242.300 144.250 L 244.000 144.484 244.000 136.066 C 244.000 130.618,243.852 127.556,243.580 127.388 C 243.115 127.100,238.706 126.584,231.400 125.963 C 225.994 125.502,193.131 125.002,192.759 125.375 M313.000 125.665 C 305.916 126.778,301.279 127.793,298.600 128.816 C 298.160 128.984,296.749 129.527,295.463 130.022 C 288.082 132.866,281.746 138.585,278.203 145.600 C 275.794 150.370,275.386 151.603,274.299 157.400 C 273.685 160.671,273.672 175.211,274.280 178.000 C 274.544 179.210,274.872 180.740,275.010 181.400 C 275.148 182.060,275.451 183.050,275.684 183.600 C 275.917 184.150,276.263 185.005,276.454 185.500 C 280.544 196.125,288.152 200.783,309.400 205.668 C 313.275 206.559,314.791 206.917,317.600 207.604 C 318.590 207.846,320.120 208.204,321.000 208.400 C 321.880 208.596,323.320 208.938,324.200 209.160 C 326.977 209.860,329.346 210.432,331.000 210.800 C 331.880 210.996,333.365 211.346,334.300 211.578 C 335.235 211.810,336.675 212.163,337.500 212.363 C 349.737 215.323,353.254 219.814,353.250 232.475 C 353.247 238.256,353.089 239.611,351.948 243.600 C 350.827 247.519,347.341 252.056,344.372 253.459 C 337.852 256.540,334.795 256.983,320.000 256.993 C 306.737 257.001,299.560 256.394,288.800 254.352 C 284.982 253.628,275.267 251.354,274.135 250.920 C 273.698 250.752,273.600 252.390,273.600 259.884 L 273.600 269.054 275.815 269.752 C 293.076 275.193,323.251 277.180,340.600 274.017 C 362.025 270.112,371.790 259.107,373.242 237.230 C 374.939 211.656,367.764 200.628,346.000 195.359 C 344.570 195.013,342.860 194.578,342.200 194.392 C 339.834 193.726,335.798 192.720,332.600 192.000 C 331.500 191.752,329.925 191.381,329.100 191.175 C 328.275 190.969,326.925 190.631,326.100 190.425 C 325.275 190.219,323.700 189.848,322.600 189.600 C 320.636 189.158,319.086 188.780,316.100 188.016 C 315.275 187.805,312.260 187.063,309.400 186.366 C 303.100 184.832,299.870 183.354,297.323 180.841 C 295.164 178.710,294.536 177.588,293.255 173.572 C 292.670 171.736,292.662 161.205,293.244 159.046 C 295.309 151.391,299.489 146.858,306.300 144.891 C 312.429 143.121,313.366 143.036,327.000 143.022 C 340.524 143.008,345.439 143.390,355.200 145.215 C 356.410 145.441,358.210 145.774,359.200 145.956 C 360.190 146.137,361.315 146.421,361.700 146.586 C 362.355 146.866,362.400 146.315,362.400 138.107 L 362.400 129.328 360.900 128.889 C 357.009 127.751,351.414 126.738,344.600 125.937 C 340.150 125.414,315.923 125.205,313.000 125.665 M87.900 178.300 C 87.733 232.779,87.846 229.929,85.545 238.000 C 82.658 248.129,77.584 252.831,66.200 255.928 C 62.213 257.013,57.989 257.283,48.400 257.066 C 38.008 256.831,34.620 256.516,28.200 255.188 C 26.835 254.906,26.800 255.118,26.800 263.757 C 26.800 271.529,26.864 272.341,27.500 272.607 C 33.104 274.952,55.439 276.277,66.000 274.891 C 90.722 271.646,102.659 259.905,106.351 235.200 C 107.351 228.514,107.600 216.046,107.600 172.787 L 107.600 127.600 97.827 127.600 L 88.054 127.600 87.900 178.300 " stroke="none" fill="#faf9fb" fill-rule="evenodd"></path><path id="path1" d="M30.200 0.463 C 29.320 0.669,28.103 0.940,27.495 1.065 C 26.887 1.190,26.292 1.451,26.171 1.646 C 26.051 1.841,25.513 2.000,24.976 2.000 C 24.439 2.000,24.000 2.180,24.000 2.400 C 24.000 2.620,23.640 2.800,23.200 2.800 C 22.760 2.800,22.400 2.980,22.400 3.200 C 22.400 3.420,22.040 3.600,21.600 3.600 C 21.160 3.600,20.800 3.780,20.800 4.000 C 20.800 4.220,20.440 4.400,20.000 4.400 C 19.560 4.400,19.200 4.580,19.200 4.800 C 19.200 5.020,18.912 5.200,18.560 5.200 C 18.209 5.200,17.417 5.740,16.800 6.400 C 16.183 7.060,15.476 7.600,15.229 7.600 C 14.787 7.600,12.695 9.339,11.038 11.083 C 8.133 14.142,7.600 14.780,7.600 15.205 C 7.600 15.466,7.060 16.183,6.400 16.800 C 5.740 17.417,5.200 18.209,5.200 18.560 C 5.200 18.912,5.020 19.200,4.800 19.200 C 4.580 19.200,4.400 19.560,4.400 20.000 C 4.400 20.440,4.220 20.800,4.000 20.800 C 3.780 20.800,3.600 21.160,3.600 21.600 C 3.600 22.040,3.420 22.400,3.200 22.400 C 2.980 22.400,2.800 22.760,2.800 23.200 C 2.800 23.640,2.620 24.000,2.400 24.000 C 2.180 24.000,2.000 24.439,2.000 24.976 C 2.000 25.513,1.820 26.064,1.600 26.200 C 1.380 26.336,1.200 26.851,1.200 27.344 C 1.200 27.837,0.975 28.465,0.700 28.740 C -0.036 29.476,-0.036 370.524,0.700 371.260 C 0.975 371.535,1.200 372.163,1.200 372.656 C 1.200 373.149,1.380 373.664,1.600 373.800 C 1.820 373.936,2.000 374.487,2.000 375.024 C 2.000 375.561,2.180 376.000,2.400 376.000 C 2.620 376.000,2.800 376.360,2.800 376.800 C 2.800 377.240,2.980 377.600,3.200 377.600 C 3.420 377.600,3.600 377.960,3.600 378.400 C 3.600 378.840,3.780 379.200,4.000 379.200 C 4.220 379.200,4.400 379.560,4.400 380.000 C 4.400 380.440,4.580 380.800,4.800 380.800 C 5.020 380.800,5.200 381.088,5.200 381.440 C 5.200 381.791,5.740 382.583,6.400 383.200 C 7.060 383.817,7.600 384.524,7.600 384.771 C 7.600 385.213,9.339 387.305,11.083 388.962 C 14.142 391.867,14.780 392.400,15.205 392.400 C 15.466 392.400,16.183 392.940,16.800 393.600 C 17.417 394.260,18.209 394.800,18.560 394.800 C 18.912 394.800,19.200 394.980,19.200 395.200 C 19.200 395.420,19.560 395.600,20.000 395.600 C 20.440 395.600,20.800 395.780,20.800 396.000 C 20.800 396.220,21.160 396.400,21.600 396.400 C 22.040 396.400,22.400 396.580,22.400 396.800 C 22.400 397.020,22.760 397.200,23.200 397.200 C 23.640 397.200,24.000 397.380,24.000 397.600 C 24.000 397.820,24.439 398.000,24.976 398.000 C 25.513 398.000,26.064 398.180,26.200 398.400 C 26.336 398.620,26.851 398.800,27.344 398.800 C 27.837 398.800,28.465 399.025,28.740 399.300 C 29.476 400.036,370.524 400.036,371.260 399.300 C 371.535 399.025,372.163 398.800,372.656 398.800 C 373.149 398.800,373.664 398.620,373.800 398.400 C 373.936 398.180,374.487 398.000,375.024 398.000 C 375.561 398.000,376.000 397.820,376.000 397.600 C 376.000 397.380,376.360 397.200,376.800 397.200 C 377.240 397.200,377.600 397.020,377.600 396.800 C 377.600 396.580,377.960 396.400,378.400 396.400 C 378.840 396.400,379.200 396.220,379.200 396.000 C 379.200 395.780,379.560 395.600,380.000 395.600 C 380.440 395.600,380.800 395.420,380.800 395.200 C 380.800 394.980,381.088 394.800,381.440 394.800 C 381.791 394.800,382.583 394.260,383.200 393.600 C 383.817 392.940,384.534 392.400,384.795 392.400 C 385.220 392.400,385.858 391.867,388.917 388.962 C 390.661 387.305,392.400 385.213,392.400 384.771 C 392.400 384.524,392.940 383.817,393.600 383.200 C 394.260 382.583,394.800 381.791,394.800 381.440 C 394.800 381.088,394.980 380.800,395.200 380.800 C 395.420 380.800,395.600 380.440,395.600 380.000 C 395.600 379.560,395.780 379.200,396.000 379.200 C 396.220 379.200,396.400 378.840,396.400 378.400 C 396.400 377.960,396.580 377.600,396.800 377.600 C 397.020 377.600,397.200 377.240,397.200 376.800 C 397.200 376.360,397.380 376.000,397.600 376.000 C 397.820 376.000,398.000 375.561,398.000 375.024 C 398.000 374.487,398.180 373.936,398.400 373.800 C 398.620 373.664,398.800 373.149,398.800 372.656 C 398.800 372.163,399.025 371.535,399.300 371.260 C 400.036 370.524,400.036 29.476,399.300 28.740 C 399.025 28.465,398.800 27.837,398.800 27.344 C 398.800 26.851,398.620 26.336,398.400 26.200 C 398.180 26.064,398.000 25.513,398.000 24.976 C 398.000 24.439,397.820 24.000,397.600 24.000 C 397.380 24.000,397.200 23.640,397.200 23.200 C 397.200 22.760,397.020 22.400,396.800 22.400 C 396.580 22.400,396.400 22.040,396.400 21.600 C 396.400 21.160,396.220 20.800,396.000 20.800 C 395.780 20.800,395.600 20.440,395.600 20.000 C 395.600 19.560,395.420 19.200,395.200 19.200 C 394.980 19.200,394.800 18.912,394.800 18.560 C 394.800 18.209,394.260 17.417,393.600 16.800 C 392.940 16.183,392.400 15.466,392.400 15.205 C 392.400 14.780,391.867 14.142,388.962 11.083 C 387.305 9.339,385.213 7.600,384.771 7.600 C 384.524 7.600,383.817 7.060,383.200 6.400 C 382.583 5.740,381.791 5.200,381.440 5.200 C 381.088 5.200,380.800 5.020,380.800 4.800 C 380.800 4.580,380.440 4.400,380.000 4.400 C 379.560 4.400,379.200 4.220,379.200 4.000 C 379.200 3.780,378.840 3.600,378.400 3.600 C 377.960 3.600,377.600 3.420,377.600 3.200 C 377.600 2.980,377.240 2.800,376.800 2.800 C 376.360 2.800,376.000 2.620,376.000 2.400 C 376.000 2.180,375.561 2.000,375.024 2.000 C 374.487 2.000,373.936 1.820,373.800 1.600 C 373.664 1.380,373.149 1.200,372.656 1.200 C 372.163 1.200,371.535 0.975,371.260 0.700 C 370.638 0.078,32.848 -0.156,30.200 0.463 M221.400 124.845 C 226.680 125.038,232.800 125.374,235.000 125.592 C 237.200 125.809,240.170 126.098,241.600 126.234 C 244.959 126.552,244.787 126.019,244.794 136.125 L 244.800 144.850 240.500 144.663 C 238.135 144.561,232.240 144.245,227.400 143.962 C 216.727 143.337,196.599 143.311,192.200 143.916 C 183.778 145.076,179.530 146.396,173.645 149.682 C 170.314 151.543,164.400 156.811,164.400 157.917 C 164.400 158.129,164.134 158.523,163.808 158.793 C 163.483 159.063,162.969 159.760,162.666 160.342 C 161.182 163.190,160.255 165.083,159.943 165.900 C 159.754 166.395,159.441 167.205,159.246 167.700 C 159.051 168.195,158.673 169.410,158.407 170.400 C 158.140 171.390,157.760 172.513,157.561 172.895 C 157.362 173.277,157.200 174.186,157.200 174.915 C 157.200 175.644,157.037 176.411,156.837 176.620 C 156.637 176.829,156.386 177.900,156.279 179.000 C 156.171 180.100,155.840 182.980,155.543 185.400 C 154.814 191.334,154.814 212.230,155.544 218.400 C 155.843 220.930,156.173 223.990,156.279 225.200 C 156.384 226.410,156.635 227.571,156.835 227.780 C 157.036 227.989,157.200 228.746,157.200 229.461 C 157.200 230.177,157.357 231.176,157.549 231.681 C 157.741 232.187,158.113 233.320,158.375 234.200 C 158.863 235.833,159.416 237.255,160.047 238.495 C 160.241 238.877,160.400 239.447,160.400 239.761 C 160.400 240.076,160.535 240.393,160.700 240.467 C 160.865 240.540,161.435 241.398,161.967 242.374 C 163.765 245.671,168.326 250.395,171.223 251.959 C 174.717 253.846,175.973 254.400,176.757 254.400 C 177.195 254.400,177.652 254.560,177.773 254.756 C 177.894 254.951,178.579 255.214,179.296 255.339 C 180.013 255.464,181.590 255.760,182.800 255.995 C 194.279 258.231,210.243 257.676,228.000 254.424 C 229.210 254.203,230.875 253.907,231.700 253.767 L 233.200 253.512 233.200 233.956 L 233.200 214.400 214.200 214.400 L 195.200 214.400 195.200 205.197 L 195.200 195.995 223.900 196.097 L 252.600 196.200 252.702 231.689 L 252.804 267.177 251.702 267.743 C 250.047 268.593,244.193 270.384,240.800 271.078 C 239.150 271.415,236.990 271.860,236.000 272.067 C 233.642 272.559,230.379 273.142,227.400 273.604 C 226.080 273.809,223.830 274.163,222.400 274.392 C 220.970 274.621,218.270 275.008,216.400 275.253 C 211.771 275.860,184.666 275.852,181.000 275.243 C 179.460 274.987,177.390 274.675,176.400 274.550 C 175.410 274.425,174.429 274.160,174.220 273.961 C 174.011 273.763,173.334 273.600,172.715 273.600 C 172.096 273.600,171.277 273.441,170.895 273.246 C 170.513 273.051,168.940 272.494,167.400 272.006 C 163.388 270.737,157.346 267.770,154.259 265.552 C 152.737 264.459,146.400 258.076,146.400 257.637 C 146.400 257.465,145.950 256.801,145.400 256.162 C 144.851 255.523,144.401 254.790,144.400 254.533 C 144.400 254.277,144.263 254.007,144.096 253.933 C 143.828 253.815,140.837 247.909,139.978 245.800 C 139.214 243.923,137.756 239.085,136.784 235.200 C 133.998 224.067,132.689 205.033,133.742 191.000 C 134.466 181.361,134.962 177.633,136.402 171.000 C 136.640 169.900,136.939 168.503,137.064 167.895 C 137.190 167.287,137.451 166.692,137.646 166.571 C 137.841 166.451,138.000 165.911,138.000 165.371 C 138.000 164.831,138.159 164.077,138.353 163.695 C 138.692 163.029,139.197 161.831,139.952 159.900 C 140.816 157.691,143.865 151.648,144.881 150.128 C 145.497 149.208,146.000 148.341,146.000 148.200 C 146.000 147.841,148.978 144.257,151.600 141.459 C 156.202 136.549,164.269 131.458,170.800 129.343 C 171.790 129.022,172.960 128.614,173.400 128.435 C 175.181 127.713,177.111 127.200,178.048 127.200 C 178.594 127.200,179.211 127.038,179.420 126.841 C 179.629 126.644,180.610 126.369,181.600 126.231 C 182.590 126.093,184.570 125.799,186.000 125.577 C 187.430 125.355,191.273 125.011,194.540 124.813 C 197.808 124.615,200.598 124.329,200.740 124.178 C 200.883 124.027,203.430 124.036,206.400 124.198 C 209.370 124.361,216.120 124.652,221.400 124.845 M339.000 124.808 C 341.860 125.007,345.640 125.352,347.400 125.574 C 349.160 125.796,351.500 126.091,352.600 126.228 C 353.700 126.365,354.771 126.640,354.980 126.839 C 355.189 127.037,356.123 127.200,357.056 127.200 C 357.989 127.200,358.864 127.380,359.000 127.600 C 359.136 127.820,359.831 128.000,360.544 128.000 C 362.769 128.000,362.800 128.139,362.800 138.120 L 362.800 147.281 361.100 147.069 C 360.165 146.953,358.500 146.654,357.400 146.405 C 353.547 145.533,346.868 144.553,340.600 143.939 C 332.178 143.116,311.975 143.470,311.368 144.452 C 311.250 144.643,310.454 144.800,309.600 144.800 C 308.746 144.800,307.936 144.980,307.800 145.200 C 307.664 145.420,307.192 145.600,306.751 145.600 C 302.783 145.600,294.800 153.055,294.800 156.761 C 294.800 157.134,294.638 157.611,294.441 157.820 C 293.578 158.733,292.819 170.579,293.575 171.335 C 293.809 171.569,294.000 172.444,294.000 173.280 C 294.000 174.116,294.180 174.800,294.400 174.800 C 294.620 174.800,294.804 175.205,294.810 175.700 C 294.854 179.692,301.355 183.827,311.000 186.000 C 312.100 186.248,313.720 186.634,314.600 186.858 C 315.480 187.083,316.920 187.443,317.800 187.660 C 318.680 187.877,319.953 188.222,320.628 188.427 C 321.304 188.632,322.328 188.800,322.905 188.800 C 323.481 188.800,324.064 188.980,324.200 189.200 C 324.336 189.420,325.056 189.600,325.800 189.600 C 326.544 189.600,327.252 189.761,327.374 189.958 C 327.495 190.155,328.271 190.410,329.097 190.525 C 329.924 190.640,331.410 190.944,332.400 191.200 C 333.390 191.456,334.876 191.760,335.703 191.875 C 336.529 191.990,337.305 192.245,337.426 192.442 C 337.548 192.639,338.256 192.800,339.000 192.800 C 339.744 192.800,340.464 192.980,340.600 193.200 C 340.736 193.420,341.456 193.600,342.200 193.600 C 342.944 193.600,343.664 193.780,343.800 194.000 C 343.936 194.220,344.478 194.400,345.005 194.400 C 345.531 194.400,346.376 194.563,346.881 194.761 C 347.387 194.960,349.379 195.613,351.309 196.212 C 362.330 199.631,370.299 206.659,372.161 214.600 C 373.828 221.704,374.133 224.414,374.097 231.800 C 374.061 239.364,373.723 244.006,373.168 244.580 C 372.965 244.789,372.800 245.496,372.800 246.152 C 372.800 247.346,372.208 249.594,371.551 250.895 C 371.358 251.277,371.200 251.843,371.200 252.154 C 371.200 252.998,367.779 259.593,366.507 261.200 C 361.250 267.843,353.017 272.329,342.200 274.441 C 335.966 275.658,334.368 275.749,319.600 275.736 C 305.208 275.723,302.427 275.581,293.800 274.415 C 289.580 273.844,283.386 272.691,281.200 272.068 C 280.430 271.849,278.810 271.397,277.600 271.064 C 272.013 269.528,272.412 270.396,272.412 259.800 C 272.412 248.766,271.965 249.430,278.200 251.205 C 281.154 252.046,286.519 253.151,294.000 254.459 C 307.829 256.877,327.884 257.226,337.000 255.207 C 338.100 254.964,339.497 254.661,340.105 254.536 C 340.713 254.410,341.308 254.149,341.429 253.954 C 341.549 253.759,341.919 253.600,342.252 253.600 C 343.081 253.600,346.329 251.358,347.858 249.730 C 354.112 243.072,354.373 223.461,348.277 218.205 C 345.644 215.936,344.187 215.172,340.200 213.971 C 339.320 213.706,338.240 213.346,337.800 213.172 C 336.991 212.851,335.441 212.536,332.697 212.135 C 331.871 212.014,331.095 211.755,330.974 211.558 C 330.852 211.361,330.144 211.200,329.400 211.200 C 328.656 211.200,327.936 211.020,327.800 210.800 C 327.664 210.580,326.944 210.400,326.200 210.400 C 325.456 210.400,324.736 210.220,324.600 210.000 C 324.464 209.780,323.654 209.600,322.800 209.600 C 321.946 209.600,321.136 209.420,321.000 209.200 C 320.864 208.980,320.144 208.800,319.400 208.800 C 318.656 208.800,317.948 208.639,317.826 208.442 C 317.705 208.245,316.929 207.990,316.103 207.875 C 315.276 207.760,313.790 207.461,312.800 207.211 C 311.810 206.961,310.280 206.596,309.400 206.400 C 308.520 206.204,307.080 205.863,306.200 205.641 C 305.320 205.420,303.790 205.061,302.800 204.843 C 294.879 203.100,288.050 200.127,283.452 196.418 C 282.255 195.453,279.205 192.230,279.202 191.929 C 279.201 191.779,278.975 191.412,278.700 191.113 C 278.211 190.581,277.362 189.199,276.788 188.000 C 276.630 187.670,276.118 186.618,275.650 185.662 C 275.183 184.706,274.800 183.502,274.800 182.986 C 274.800 182.470,274.640 181.948,274.444 181.827 C 273.084 180.986,272.242 167.181,273.138 160.400 C 273.934 154.375,274.078 153.599,274.442 153.374 C 274.639 153.252,274.800 152.711,274.800 152.171 C 274.800 151.631,274.959 150.877,275.153 150.495 C 275.348 150.113,275.685 149.350,275.903 148.800 C 276.713 146.755,278.210 143.796,278.500 143.667 C 278.665 143.593,278.800 143.340,278.800 143.103 C 278.800 140.766,287.458 132.853,292.300 130.765 C 293.015 130.457,293.600 130.069,293.600 129.902 C 293.600 129.736,293.846 129.600,294.147 129.600 C 294.698 129.600,298.407 128.239,299.695 127.564 C 300.077 127.364,300.921 127.200,301.571 127.200 C 302.221 127.200,302.864 127.020,303.000 126.800 C 303.136 126.580,303.946 126.400,304.800 126.400 C 305.654 126.400,306.464 126.220,306.600 126.000 C 306.736 125.780,307.726 125.600,308.800 125.600 C 309.874 125.600,310.864 125.420,311.000 125.200 C 311.136 124.980,312.722 124.780,314.524 124.757 C 316.326 124.733,318.880 124.568,320.200 124.391 C 322.768 124.047,330.549 124.219,339.000 124.808 M107.766 178.400 C 107.733 229.359,107.680 231.800,106.446 238.800 C 103.451 255.794,93.640 268.430,80.400 272.346 C 79.410 272.638,78.287 273.040,77.905 273.239 C 77.523 273.438,76.769 273.600,76.229 273.600 C 75.689 273.600,75.151 273.756,75.033 273.947 C 74.915 274.138,73.959 274.419,72.909 274.573 C 71.859 274.727,70.010 275.048,68.800 275.287 C 65.837 275.874,39.896 275.858,36.200 275.268 C 34.660 275.022,32.590 274.643,31.600 274.426 C 30.610 274.210,29.080 273.887,28.200 273.709 L 26.600 273.387 26.493 263.854 L 26.385 254.322 28.293 254.543 C 29.342 254.665,31.370 254.953,32.800 255.183 C 41.567 256.595,53.702 256.989,60.400 256.079 C 66.520 255.248,67.202 255.120,67.426 254.758 C 67.548 254.561,68.089 254.400,68.629 254.400 C 69.169 254.400,69.923 254.240,70.305 254.045 C 70.687 253.850,72.245 253.085,73.767 252.345 C 79.719 249.452,84.057 243.127,85.665 235.000 C 86.805 229.238,86.904 225.367,87.154 177.000 C 87.297 149.280,87.456 126.552,87.507 126.493 C 87.558 126.434,92.145 126.434,97.700 126.493 L 107.800 126.600 107.766 178.400 " stroke="none" fill="#5404ac" fill-rule="evenodd"></path><path id="path2" d="M202.500 124.687 C 203.105 124.778,204.095 124.778,204.700 124.687 C 205.305 124.595,204.810 124.520,203.600 124.520 C 202.390 124.520,201.895 124.595,202.500 124.687 M324.691 124.689 C 325.401 124.777,326.661 124.779,327.491 124.692 C 328.321 124.605,327.740 124.533,326.200 124.531 C 324.660 124.529,323.981 124.600,324.691 124.689 M192.100 125.076 C 192.485 125.176,193.115 125.176,193.500 125.076 C 193.885 124.975,193.570 124.893,192.800 124.893 C 192.030 124.893,191.715 124.975,192.100 125.076 M221.911 125.093 C 222.851 125.178,224.291 125.177,225.111 125.091 C 225.930 125.005,225.160 124.936,223.400 124.937 C 221.640 124.939,220.970 125.009,221.911 125.093 M314.500 125.076 C 314.885 125.176,315.515 125.176,315.900 125.076 C 316.285 124.975,315.970 124.893,315.200 124.893 C 314.430 124.893,314.115 124.975,314.500 125.076 M338.705 125.083 C 339.202 125.179,339.922 125.175,340.305 125.075 C 340.687 124.975,340.280 124.896,339.400 124.901 C 338.520 124.905,338.207 124.987,338.705 125.083 M234.500 125.876 C 234.885 125.976,235.515 125.976,235.900 125.876 C 236.285 125.775,235.970 125.693,235.200 125.693 C 234.430 125.693,234.115 125.775,234.500 125.876 M97.798 127.096 L 107.597 127.214 107.701 176.907 L 107.805 226.600 107.802 176.800 L 107.800 127.000 97.900 126.989 L 88.000 126.979 97.798 127.096 M202.920 143.098 C 204.855 143.172,207.915 143.171,209.720 143.097 C 211.524 143.023,209.940 142.963,206.200 142.964 C 202.460 142.964,200.984 143.025,202.920 143.098 M324.313 143.095 C 325.476 143.176,327.276 143.176,328.313 143.093 C 329.351 143.011,328.400 142.945,326.200 142.946 C 324.000 142.947,323.151 143.014,324.313 143.095 M222.900 143.476 C 223.285 143.576,223.915 143.576,224.300 143.476 C 224.685 143.375,224.370 143.293,223.600 143.293 C 222.830 143.293,222.515 143.375,222.900 143.476 M229.507 143.890 C 230.226 143.979,231.306 143.977,231.907 143.886 C 232.508 143.795,231.920 143.722,230.600 143.724 C 229.280 143.726,228.788 143.801,229.507 143.890 M341.505 143.883 C 342.002 143.979,342.722 143.975,343.105 143.875 C 343.487 143.775,343.080 143.696,342.200 143.701 C 341.320 143.705,341.007 143.787,341.505 143.883 M241.105 144.683 C 241.602 144.779,242.322 144.775,242.705 144.675 C 243.087 144.575,242.680 144.496,241.800 144.501 C 240.920 144.505,240.607 144.587,241.105 144.683 M166.378 154.700 L 165.000 156.200 166.500 154.822 C 167.896 153.538,168.184 153.200,167.878 153.200 C 167.812 153.200,167.137 153.875,166.378 154.700 M292.920 166.800 C 292.920 168.010,292.995 168.505,293.087 167.900 C 293.178 167.295,293.178 166.305,293.087 165.700 C 292.995 165.095,292.920 165.590,292.920 166.800 M272.893 166.400 C 272.893 167.170,272.975 167.485,273.076 167.100 C 273.176 166.715,273.176 166.085,273.076 165.700 C 272.975 165.315,272.893 165.630,272.893 166.400 M154.570 200.800 C 154.570 205.530,154.628 207.465,154.698 205.100 C 154.769 202.735,154.769 198.865,154.698 196.500 C 154.628 194.135,154.570 196.070,154.570 200.800 M133.737 195.800 C 133.739 197.560,133.809 198.230,133.893 197.289 C 133.978 196.349,133.977 194.909,133.891 194.089 C 133.805 193.270,133.736 194.040,133.737 195.800 M133.740 205.200 C 133.740 207.070,133.809 207.835,133.893 206.900 C 133.977 205.965,133.977 204.435,133.893 203.500 C 133.809 202.565,133.740 203.330,133.740 205.200 M134.101 212.200 C 134.105 213.080,134.187 213.393,134.283 212.895 C 134.379 212.398,134.375 211.678,134.275 211.295 C 134.175 210.913,134.096 211.320,134.101 212.200 M233.200 234.080 C 233.090 245.014,233.137 253.824,233.304 253.656 C 233.471 253.489,233.561 244.543,233.504 233.776 L 233.400 214.200 233.200 234.080 M87.301 225.000 C 87.305 225.880,87.387 226.193,87.483 225.695 C 87.579 225.198,87.575 224.478,87.475 224.095 C 87.375 223.713,87.296 224.120,87.301 225.000 M352.909 229.200 C 352.909 230.190,352.987 230.595,353.082 230.100 C 353.178 229.605,353.178 228.795,353.082 228.300 C 352.987 227.805,352.909 228.210,352.909 229.200 M352.920 235.200 C 352.920 236.410,352.995 236.905,353.087 236.300 C 353.178 235.695,353.178 234.705,353.087 234.100 C 352.995 233.495,352.920 233.990,352.920 235.200 M373.714 236.200 C 373.717 237.300,373.795 237.703,373.887 237.095 C 373.979 236.486,373.977 235.586,373.882 235.095 C 373.787 234.603,373.711 235.100,373.714 236.200 M26.579 254.910 C 26.472 255.190,26.436 259.285,26.500 264.010 L 26.617 272.600 26.708 263.728 C 26.800 254.878,26.802 254.855,27.700 254.682 L 28.600 254.509 27.687 254.454 C 27.186 254.425,26.687 254.629,26.579 254.910 M303.905 256.283 C 304.402 256.379,305.122 256.375,305.505 256.275 C 305.887 256.175,305.480 256.096,304.600 256.101 C 303.720 256.105,303.407 256.187,303.905 256.283 M47.715 257.096 C 48.988 257.176,50.968 257.175,52.115 257.094 C 53.262 257.014,52.220 256.949,49.800 256.950 C 47.380 256.951,46.442 257.016,47.715 257.096 M212.100 257.076 C 212.485 257.176,213.115 257.176,213.500 257.076 C 213.885 256.975,213.570 256.893,212.800 256.893 C 212.030 256.893,211.715 256.975,212.100 257.076 M319.900 257.096 C 321.275 257.174,323.525 257.174,324.900 257.096 C 326.275 257.018,325.150 256.954,322.400 256.954 C 319.650 256.954,318.525 257.018,319.900 257.096 M208.100 257.476 C 208.485 257.576,209.115 257.576,209.500 257.476 C 209.885 257.375,209.570 257.293,208.800 257.293 C 208.030 257.293,207.715 257.375,208.100 257.476 M147.600 258.925 C 147.600 258.994,148.185 259.579,148.900 260.225 L 150.200 261.400 149.025 260.100 C 147.930 258.888,147.600 258.616,147.600 258.925 M43.900 275.882 C 44.395 275.978,45.205 275.978,45.700 275.882 C 46.195 275.787,45.790 275.709,44.800 275.709 C 43.810 275.709,43.405 275.787,43.900 275.882 M61.300 275.876 C 61.685 275.976,62.315 275.976,62.700 275.876 C 63.085 275.775,62.770 275.693,62.000 275.693 C 61.230 275.693,60.915 275.775,61.300 275.876 M188.305 275.883 C 188.802 275.979,189.522 275.975,189.905 275.875 C 190.287 275.775,189.880 275.696,189.000 275.701 C 188.120 275.705,187.807 275.787,188.305 275.883 M206.105 275.887 C 206.714 275.979,207.614 275.977,208.105 275.882 C 208.597 275.787,208.100 275.711,207.000 275.714 C 205.900 275.717,205.497 275.795,206.105 275.887 M309.705 275.887 C 310.314 275.979,311.214 275.977,311.705 275.882 C 312.197 275.787,311.700 275.711,310.600 275.714 C 309.500 275.717,309.097 275.795,309.705 275.887 M329.700 275.876 C 330.085 275.976,330.715 275.976,331.100 275.876 C 331.485 275.775,331.170 275.693,330.400 275.693 C 329.630 275.693,329.315 275.775,329.700 275.876 " stroke="none" fill="#925bc9" fill-rule="evenodd"></path><path id="path3" d="M200.500 125.099 C 204.185 125.165,210.215 125.165,213.900 125.099 C 217.585 125.033,214.570 124.979,207.200 124.979 C 199.830 124.979,196.815 125.033,200.500 125.099 M321.700 125.099 C 324.725 125.167,329.675 125.167,332.700 125.099 C 335.725 125.031,333.250 124.975,327.200 124.975 C 321.150 124.975,318.675 125.031,321.700 125.099 M188.600 125.600 L 186.600 125.874 188.600 125.890 C 189.700 125.898,191.140 125.768,191.800 125.600 L 193.000 125.295 191.800 125.310 C 191.140 125.319,189.700 125.449,188.600 125.600 M225.800 125.597 C 228.297 125.926,234.258 126.111,233.967 125.851 C 233.875 125.769,231.460 125.607,228.600 125.492 C 225.207 125.354,224.234 125.391,225.800 125.597 M311.200 125.600 L 309.400 125.880 311.200 125.893 C 312.190 125.900,313.540 125.768,314.200 125.600 L 315.400 125.295 314.200 125.307 C 313.540 125.314,312.190 125.446,311.200 125.600 M341.000 125.608 C 342.574 125.948,347.092 126.140,346.767 125.853 C 346.675 125.772,344.980 125.607,343.000 125.485 C 340.494 125.330,339.886 125.368,341.000 125.608 M183.000 126.400 L 181.400 126.686 183.000 126.715 C 183.880 126.731,184.960 126.589,185.400 126.400 L 186.200 126.056 185.400 126.085 C 184.960 126.101,183.880 126.242,183.000 126.400 M236.200 126.383 C 237.408 126.707,241.477 126.928,241.167 126.652 C 241.075 126.571,239.650 126.404,238.000 126.282 C 236.169 126.147,235.468 126.186,236.200 126.383 M306.400 126.400 L 305.000 126.695 306.400 126.719 C 307.170 126.733,308.160 126.589,308.600 126.400 L 309.400 126.056 308.600 126.081 C 308.160 126.094,307.170 126.238,306.400 126.400 M348.200 126.392 C 348.957 126.725,352.721 126.963,352.367 126.656 C 352.275 126.576,351.120 126.405,349.800 126.276 C 348.276 126.126,347.692 126.169,348.200 126.392 M242.800 127.157 L 243.800 127.435 244.012 136.018 L 244.224 144.600 244.312 136.180 C 244.405 127.329,244.301 126.758,242.620 126.840 C 241.933 126.873,241.963 126.925,242.800 127.157 M352.860 126.994 C 352.987 127.120,354.150 127.417,355.445 127.652 C 359.392 128.369,360.299 128.435,358.200 127.855 C 355.826 127.198,352.534 126.667,352.860 126.994 M87.698 174.500 L 87.797 221.800 87.900 174.707 L 88.003 127.614 97.902 127.500 L 107.800 127.385 97.700 127.293 L 87.600 127.200 87.698 174.500 M177.887 127.446 C 177.751 127.582,177.046 127.847,176.320 128.035 C 175.096 128.353,175.087 128.366,176.200 128.216 C 178.454 127.913,180.355 127.288,179.167 127.241 C 178.598 127.218,178.022 127.311,177.887 127.446 M300.200 127.867 C 299.760 127.963,299.040 128.194,298.600 128.382 C 298.160 128.569,296.762 129.122,295.493 129.610 C 294.224 130.099,293.096 130.644,292.986 130.822 C 292.803 131.119,296.857 129.599,298.495 128.757 C 298.877 128.561,299.507 128.397,299.895 128.394 C 300.283 128.391,300.870 128.213,301.200 128.000 C 301.820 127.599,301.577 127.567,300.200 127.867 M173.000 129.014 C 172.000 129.496,171.966 129.551,172.800 129.348 C 173.933 129.071,175.207 128.421,174.600 128.430 C 174.380 128.433,173.660 128.696,173.000 129.014 M361.292 128.917 L 362.385 129.349 362.501 137.975 L 362.616 146.600 362.708 137.890 L 362.800 129.180 361.774 128.790 C 361.210 128.576,360.625 128.419,360.474 128.443 C 360.323 128.466,360.692 128.680,361.292 128.917 M167.749 130.932 C 160.717 134.099,153.867 139.062,149.990 143.800 C 149.450 144.460,150.447 143.609,152.204 141.908 C 157.584 136.703,162.369 133.580,169.600 130.554 C 170.810 130.048,171.530 129.637,171.200 129.641 C 170.870 129.645,169.317 130.226,167.749 130.932 M290.000 132.418 C 289.010 133.059,288.020 133.653,287.800 133.737 C 287.580 133.822,287.490 133.979,287.600 134.087 C 287.710 134.195,288.880 133.592,290.200 132.746 C 291.520 131.900,292.420 131.218,292.200 131.230 C 291.980 131.242,290.990 131.776,290.000 132.418 M283.491 137.571 C 282.283 138.876,280.898 140.541,280.413 141.271 C 279.711 142.329,279.802 142.274,280.863 141.000 C 281.595 140.120,283.077 138.455,284.155 137.300 C 285.234 136.145,286.019 135.200,285.901 135.200 C 285.783 135.200,284.698 136.267,283.491 137.571 M191.600 143.180 C 191.050 143.346,192.580 143.394,195.000 143.288 C 197.420 143.181,199.475 143.028,199.567 142.947 C 199.883 142.667,192.597 142.881,191.600 143.180 M212.833 142.946 C 212.925 143.026,216.690 143.175,221.200 143.278 C 225.710 143.380,228.410 143.332,227.200 143.172 C 224.965 142.875,212.528 142.679,212.833 142.946 M278.313 144.500 C 277.237 146.524,276.772 147.600,276.972 147.600 C 277.053 147.600,277.681 146.520,278.368 145.200 C 279.055 143.880,279.527 142.800,279.417 142.800 C 279.306 142.800,278.810 143.565,278.313 144.500 M314.200 143.170 C 313.449 143.465,321.337 143.298,322.200 143.001 C 322.420 142.925,320.890 142.862,318.800 142.860 C 316.710 142.858,314.640 142.998,314.200 143.170 M330.033 142.947 C 330.125 143.027,332.810 143.179,336.000 143.284 C 339.322 143.393,341.116 143.340,340.200 143.160 C 338.619 142.850,329.711 142.663,330.033 142.947 M186.800 144.021 C 186.370 144.314,186.654 144.354,187.800 144.162 C 189.784 143.830,190.104 143.598,188.567 143.606 C 187.925 143.609,187.130 143.796,186.800 144.021 M232.833 143.744 C 232.925 143.824,234.890 143.985,237.200 144.101 C 239.510 144.218,240.860 144.175,240.200 144.004 C 239.008 143.697,232.514 143.468,232.833 143.744 M309.600 144.021 C 309.170 144.314,309.454 144.354,310.600 144.162 C 312.584 143.830,312.904 143.598,311.367 143.606 C 310.725 143.609,309.930 143.796,309.600 144.021 M343.633 143.747 C 343.725 143.828,344.970 143.997,346.400 144.123 C 348.030 144.266,348.627 144.226,348.000 144.016 C 347.020 143.686,343.305 143.458,343.633 143.747 M183.600 144.818 C 183.162 145.115,183.324 145.152,184.200 144.956 C 185.671 144.627,185.990 144.398,184.967 144.406 C 184.545 144.409,183.930 144.595,183.600 144.818 M306.400 144.818 C 305.962 145.115,306.124 145.152,307.000 144.956 C 308.471 144.627,308.790 144.398,307.767 144.406 C 307.345 144.409,306.730 144.595,306.400 144.818 M351.000 144.800 C 351.660 144.968,352.560 145.114,353.000 145.125 L 353.800 145.144 353.000 144.800 C 352.560 144.611,351.660 144.465,351.000 144.475 L 349.800 144.495 351.000 144.800 M147.912 146.300 C 146.193 148.123,141.089 157.200,141.783 157.200 C 141.870 157.200,142.446 156.165,143.063 154.900 C 144.572 151.808,146.351 148.882,147.948 146.866 C 149.457 144.961,149.439 144.682,147.912 146.300 M180.800 145.618 C 180.362 145.915,180.524 145.952,181.400 145.756 C 182.871 145.427,183.190 145.198,182.167 145.206 C 181.745 145.209,181.130 145.395,180.800 145.618 M354.433 145.347 C 354.525 145.428,355.320 145.614,356.200 145.762 C 357.346 145.954,357.630 145.914,357.200 145.621 C 356.660 145.253,354.032 144.993,354.433 145.347 M301.600 146.839 C 299.776 147.929,296.492 151.106,295.769 152.480 C 294.805 154.310,295.139 154.251,296.348 152.378 C 297.748 150.210,299.612 148.456,302.000 147.060 C 302.990 146.481,303.620 146.007,303.400 146.005 C 303.180 146.004,302.370 146.379,301.600 146.839 M359.600 146.400 C 361.142 146.894,361.964 146.894,361.200 146.400 C 360.870 146.187,360.150 146.027,359.600 146.046 L 358.600 146.080 359.600 146.400 M173.100 149.029 C 172.495 149.357,172.000 149.710,172.000 149.813 C 172.000 150.199,172.632 149.957,173.600 149.200 C 174.789 148.270,174.611 148.209,173.100 149.029 M170.000 151.071 C 167.916 152.651,165.642 154.846,164.685 156.200 C 164.219 156.860,164.819 156.402,166.019 155.182 C 167.218 153.962,169.010 152.305,170.000 151.500 C 172.077 149.810,172.077 149.495,170.000 151.071 M274.854 153.067 C 274.825 153.544,274.696 154.264,274.570 154.667 C 274.352 155.361,274.364 155.362,274.796 154.688 C 275.047 154.297,275.175 153.577,275.081 153.088 C 274.909 152.201,274.909 152.201,274.854 153.067 M274.064 156.650 C 274.029 157.118,273.905 158.108,273.789 158.850 C 273.596 160.086,273.615 160.117,274.008 159.214 C 274.245 158.672,274.368 157.682,274.283 157.014 C 274.191 156.297,274.102 156.148,274.064 156.650 M140.232 160.232 C 139.645 161.698,139.232 162.965,139.315 163.048 C 139.398 163.131,139.943 161.996,140.526 160.526 C 141.110 159.056,141.522 157.789,141.443 157.709 C 141.364 157.630,140.819 158.765,140.232 160.232 M162.998 158.402 C 162.598 158.844,162.366 159.299,162.482 159.415 C 162.597 159.530,162.990 159.169,163.355 158.612 C 164.152 157.396,163.993 157.302,162.998 158.402 M293.056 159.684 C 292.921 160.188,292.833 161.590,292.860 162.800 C 292.907 164.918,292.920 164.888,293.222 162.001 C 293.545 158.911,293.485 158.082,293.056 159.684 M161.414 161.035 C 161.041 161.604,160.827 162.161,160.939 162.272 C 161.050 162.383,161.429 161.918,161.781 161.237 C 162.559 159.733,162.344 159.615,161.414 161.035 M273.140 164.700 C 273.063 166.625,273.105 169.730,273.232 171.600 C 273.414 174.254,273.479 173.486,273.532 168.100 C 273.604 160.800,273.375 158.816,273.140 164.700 M159.796 164.272 C 159.458 165.081,159.233 165.900,159.297 166.091 C 159.361 166.282,159.716 165.620,160.087 164.619 C 160.893 162.445,160.670 162.179,159.796 164.272 M138.600 164.400 C 138.450 164.873,138.417 165.350,138.527 165.460 C 138.637 165.570,138.850 165.273,139.000 164.800 C 139.150 164.327,139.183 163.850,139.073 163.740 C 138.963 163.630,138.750 163.927,138.600 164.400 M138.046 166.267 C 138.021 166.524,137.884 167.064,137.741 167.467 C 137.540 168.036,137.594 168.097,137.979 167.742 C 138.252 167.491,138.389 166.951,138.284 166.542 C 138.179 166.134,138.072 166.010,138.046 166.267 M157.849 169.415 C 157.712 169.773,157.615 170.366,157.634 170.733 C 157.653 171.100,157.827 170.869,158.021 170.220 C 158.398 168.958,158.265 168.333,157.849 169.415 M292.806 170.633 C 292.809 171.715,292.981 172.867,293.187 173.192 C 293.430 173.577,293.479 172.946,293.325 171.392 C 293.030 168.398,292.798 168.059,292.806 170.633 M137.073 169.753 C 136.923 170.145,136.811 170.766,136.825 171.133 C 136.842 171.575,136.981 171.474,137.237 170.834 C 137.449 170.303,137.561 169.682,137.485 169.454 C 137.409 169.227,137.224 169.361,137.073 169.753 M157.049 172.215 C 156.912 172.573,156.815 173.166,156.834 173.533 C 156.853 173.900,157.027 173.669,157.221 173.020 C 157.598 171.758,157.465 171.133,157.049 172.215 M136.200 174.000 C 136.048 174.691,136.014 175.347,136.124 175.457 C 136.234 175.567,136.448 175.091,136.600 174.400 C 136.752 173.709,136.786 173.053,136.676 172.943 C 136.566 172.833,136.352 173.309,136.200 174.000 M273.687 176.400 C 273.691 176.950,273.832 177.940,274.000 178.600 L 274.305 179.800 274.313 178.600 C 274.317 177.940,274.176 176.950,274.000 176.400 L 273.680 175.400 273.687 176.400 M156.054 176.800 C 156.019 177.350,155.896 178.250,155.783 178.800 L 155.577 179.800 156.007 178.815 C 156.243 178.274,156.365 177.374,156.278 176.815 L 156.120 175.800 156.054 176.800 M135.400 178.400 C 135.245 179.528,135.208 180.541,135.318 180.651 C 135.428 180.761,135.645 179.928,135.800 178.800 C 135.955 177.672,135.992 176.659,135.882 176.549 C 135.772 176.439,135.555 177.272,135.400 178.400 M294.416 176.706 C 294.395 177.375,296.100 179.989,296.562 179.995 C 296.761 179.998,296.649 179.685,296.312 179.300 C 295.975 178.915,295.415 178.060,295.066 177.400 C 294.717 176.740,294.425 176.428,294.416 176.706 M155.058 182.759 C 154.907 184.386,154.861 185.795,154.957 185.890 C 155.206 186.139,155.721 180.963,155.510 180.330 C 155.413 180.039,155.210 181.132,155.058 182.759 M274.446 180.400 C 274.465 180.730,274.624 181.450,274.800 182.000 L 275.120 183.000 275.154 182.000 C 275.173 181.450,275.013 180.730,274.800 180.400 C 274.455 179.867,274.416 179.867,274.446 180.400 M299.029 182.389 C 299.893 183.043,300.767 183.583,300.971 183.589 C 301.175 183.595,300.635 183.065,299.771 182.411 C 298.907 181.757,298.033 181.217,297.829 181.211 C 297.625 181.205,298.165 181.735,299.029 182.389 M134.672 183.404 C 134.527 184.282,134.430 185.720,134.455 186.600 C 134.489 187.767,134.598 187.448,134.857 185.421 C 135.245 182.397,135.100 180.814,134.672 183.404 M306.200 185.600 C 306.640 185.789,307.270 185.944,307.600 185.944 C 307.978 185.944,307.904 185.817,307.400 185.600 C 306.960 185.411,306.330 185.256,306.000 185.256 C 305.622 185.256,305.696 185.383,306.200 185.600 M309.400 186.400 C 309.840 186.589,310.470 186.744,310.800 186.744 C 311.178 186.744,311.104 186.617,310.600 186.400 C 310.160 186.211,309.530 186.056,309.200 186.056 C 308.822 186.056,308.896 186.183,309.400 186.400 M154.261 190.662 C 153.956 195.644,154.000 206.242,154.353 212.800 C 154.491 215.367,154.600 210.550,154.600 201.900 C 154.600 193.375,154.582 186.400,154.561 186.400 C 154.539 186.400,154.404 188.318,154.261 190.662 M312.600 187.200 C 313.040 187.389,313.670 187.544,314.000 187.544 C 314.378 187.544,314.304 187.417,313.800 187.200 C 313.360 187.011,312.730 186.856,312.400 186.856 C 312.022 186.856,312.096 186.983,312.600 187.200 M316.000 188.000 C 316.330 188.213,316.960 188.378,317.400 188.366 L 318.200 188.344 317.400 188.000 C 316.204 187.486,315.205 187.486,316.000 188.000 M319.200 188.800 C 319.530 189.013,320.160 189.178,320.600 189.166 L 321.400 189.144 320.600 188.800 C 319.404 188.286,318.405 188.286,319.200 188.800 M278.292 189.823 C 279.222 191.428,280.642 193.200,280.999 193.200 C 281.155 193.200,280.769 192.583,280.141 191.828 C 279.514 191.074,278.681 190.039,278.292 189.528 C 277.614 188.640,277.614 188.653,278.292 189.823 M322.600 189.600 C 323.040 189.789,323.760 189.938,324.200 189.932 C 324.843 189.923,324.804 189.857,324.000 189.600 C 322.632 189.162,321.581 189.162,322.600 189.600 M326.000 190.400 C 326.330 190.613,326.960 190.778,327.400 190.766 L 328.200 190.744 327.400 190.400 C 326.204 189.886,325.205 189.886,326.000 190.400 M133.939 195.900 C 133.842 198.705,133.874 203.250,134.010 206.000 C 134.215 210.139,134.270 209.262,134.329 200.900 C 134.406 190.015,134.223 187.677,133.939 195.900 M329.200 191.200 C 329.530 191.413,330.160 191.578,330.600 191.566 L 331.400 191.544 330.600 191.200 C 329.404 190.686,328.405 190.686,329.200 191.200 M332.600 191.981 C 333.368 192.329,335.510 192.556,335.167 192.253 C 335.075 192.172,334.280 191.996,333.400 191.862 C 332.285 191.693,332.042 191.729,332.600 191.981 M336.000 192.794 C 336.330 193.011,337.035 193.191,337.567 193.194 C 338.851 193.202,338.525 192.975,336.800 192.658 C 335.815 192.477,335.578 192.518,336.000 192.794 M339.200 193.594 C 339.530 193.811,340.235 193.991,340.767 193.994 C 342.051 194.002,341.725 193.775,340.000 193.458 C 339.015 193.277,338.778 193.318,339.200 193.594 M282.196 194.796 C 282.826 195.454,283.411 195.923,283.495 195.838 C 283.680 195.653,281.672 193.600,281.307 193.600 C 281.166 193.600,281.566 194.138,282.196 194.796 M342.058 194.191 C 342.402 194.536,348.518 196.015,348.728 195.805 C 348.820 195.714,348.378 195.524,347.747 195.384 C 347.116 195.243,346.060 194.980,345.400 194.800 C 343.115 194.175,341.803 193.936,342.058 194.191 M195.380 196.508 C 195.272 196.791,195.236 200.707,195.300 205.211 L 195.418 213.400 195.509 204.900 L 195.600 196.400 223.804 196.400 L 252.009 196.400 251.904 231.780 C 251.847 251.239,251.936 267.024,252.102 266.858 C 252.268 266.692,252.358 250.726,252.302 231.378 L 252.200 196.200 223.888 196.097 C 201.137 196.015,195.538 196.095,195.380 196.508 M284.491 196.659 C 284.870 197.090,285.950 197.866,286.891 198.384 C 289.057 199.577,288.789 199.273,286.000 197.374 C 284.790 196.550,284.111 196.228,284.491 196.659 M350.600 196.656 C 353.007 197.582,355.623 198.639,357.300 199.363 C 358.125 199.719,358.800 199.927,358.800 199.824 C 358.800 199.414,350.301 195.974,349.402 196.021 C 349.181 196.032,349.720 196.318,350.600 196.656 M359.400 200.290 C 359.620 200.500,360.520 201.076,361.400 201.570 C 362.280 202.065,362.640 202.170,362.200 201.804 C 361.306 201.061,358.772 199.691,359.400 200.290 M296.800 202.782 C 297.130 203.005,297.745 203.191,298.167 203.194 C 299.190 203.202,298.871 202.973,297.400 202.644 C 296.524 202.448,296.362 202.485,296.800 202.782 M299.600 203.582 C 299.930 203.805,300.545 203.991,300.967 203.994 C 301.990 204.002,301.671 203.773,300.200 203.444 C 299.324 203.248,299.162 203.285,299.600 203.582 M302.600 204.381 C 303.368 204.729,305.510 204.956,305.167 204.653 C 305.075 204.572,304.280 204.396,303.400 204.262 C 302.285 204.093,302.042 204.129,302.600 204.381 M365.954 205.136 C 366.399 205.760,367.083 206.525,367.474 206.836 C 367.865 207.146,367.588 206.635,366.859 205.700 C 365.374 203.796,364.702 203.377,365.954 205.136 M306.000 205.194 C 306.330 205.411,307.035 205.591,307.567 205.594 C 308.851 205.602,308.525 205.375,306.800 205.058 C 305.815 204.877,305.578 204.918,306.000 205.194 M308.800 205.746 C 308.800 205.888,313.599 207.059,315.600 207.406 C 317.629 207.757,315.084 206.899,312.143 206.240 C 309.112 205.561,308.800 205.515,308.800 205.746 M316.833 207.743 C 316.925 207.821,317.630 208.001,318.400 208.142 C 319.385 208.323,319.622 208.282,319.200 208.006 C 318.658 207.650,316.437 207.403,316.833 207.743 M321.200 208.800 C 322.742 209.294,323.564 209.294,322.800 208.800 C 322.470 208.587,321.750 208.427,321.200 208.446 L 320.200 208.480 321.200 208.800 M369.478 210.195 C 369.844 210.962,370.214 211.519,370.301 211.432 C 370.484 211.249,369.270 208.800,368.996 208.800 C 368.895 208.800,369.112 209.428,369.478 210.195 M324.400 209.600 C 325.942 210.094,326.764 210.094,326.000 209.600 C 325.670 209.387,324.950 209.227,324.400 209.246 L 323.400 209.280 324.400 209.600 M326.833 210.143 C 326.925 210.221,327.630 210.401,328.400 210.542 C 329.385 210.723,329.622 210.682,329.200 210.406 C 328.658 210.050,326.437 209.803,326.833 210.143 M331.200 211.200 C 332.742 211.694,333.564 211.694,332.800 211.200 C 332.470 210.987,331.750 210.827,331.200 210.846 L 330.200 210.880 331.200 211.200 M334.400 212.000 C 335.942 212.494,336.764 212.494,336.000 212.000 C 335.670 211.787,334.950 211.627,334.400 211.646 L 333.400 211.680 334.400 212.000 M337.800 212.800 C 338.996 213.314,339.995 213.314,339.200 212.800 C 338.870 212.587,338.240 212.422,337.800 212.434 L 337.000 212.456 337.800 212.800 M202.200 213.889 C 219.642 214.168,233.600 214.173,233.600 213.900 C 233.600 213.735,225.005 213.640,214.500 213.690 C 203.995 213.739,198.460 213.829,202.200 213.889 M134.423 216.233 C 134.436 217.315,134.603 218.920,134.795 219.800 C 135.044 220.943,135.080 220.428,134.921 218.000 C 134.672 214.212,134.388 213.203,134.423 216.233 M346.780 216.270 C 347.319 216.671,348.185 217.424,348.704 217.942 C 349.224 218.461,349.727 218.806,349.823 218.711 C 350.063 218.470,348.450 217.048,347.000 216.222 C 345.813 215.547,345.811 215.547,346.780 216.270 M372.282 218.021 C 372.408 218.999,372.575 219.875,372.655 219.967 C 372.981 220.342,372.760 217.355,372.421 216.821 C 372.184 216.446,372.135 216.870,372.282 218.021 M155.047 220.200 C 155.378 224.593,156.826 232.559,157.397 233.130 C 157.544 233.278,157.542 232.859,157.392 232.199 C 157.242 231.540,156.975 230.370,156.798 229.600 C 156.621 228.830,156.269 226.760,156.016 225.000 C 155.025 218.112,154.810 217.048,155.047 220.200 M107.063 226.939 C 106.888 230.425,106.828 233.361,106.930 233.463 C 107.181 233.714,107.717 223.308,107.531 221.800 C 107.449 221.140,107.239 223.453,107.063 226.939 M373.363 230.400 C 373.351 234.910,373.229 239.680,373.091 241.000 C 372.924 242.601,372.951 242.963,373.173 242.087 C 373.688 240.047,374.032 228.963,373.691 225.400 C 373.450 222.894,373.379 223.978,373.363 230.400 M135.286 224.000 C 135.283 224.770,135.424 225.850,135.600 226.400 C 136.050 227.804,136.065 226.337,135.623 224.200 L 135.292 222.600 135.286 224.000 M352.480 224.800 C 352.480 225.350,352.624 226.250,352.800 226.800 L 353.120 227.800 353.120 226.800 C 353.120 226.250,352.976 225.350,352.800 224.800 L 352.480 223.800 352.480 224.800 M87.263 227.400 C 87.223 228.060,87.104 229.320,86.997 230.200 L 86.803 231.800 87.223 230.460 C 87.454 229.723,87.574 228.463,87.489 227.660 C 87.352 226.366,87.326 226.337,87.263 227.400 M136.068 229.400 C 136.074 229.840,136.224 230.650,136.400 231.200 L 136.720 232.200 136.732 231.200 C 136.738 230.650,136.589 229.840,136.400 229.400 L 136.056 228.600 136.068 229.400 M86.222 234.222 C 86.072 235.025,86.038 235.772,86.148 235.882 C 86.258 235.992,86.472 235.425,86.622 234.622 C 86.773 233.819,86.806 233.073,86.696 232.963 C 86.586 232.853,86.373 233.419,86.222 234.222 M136.856 233.400 C 136.856 233.840,137.011 234.560,137.200 235.000 L 137.544 235.800 137.544 235.000 C 137.544 234.560,137.389 233.840,137.200 233.400 L 136.856 232.600 136.856 233.400 M157.606 234.233 C 157.609 234.655,157.795 235.270,158.018 235.600 C 158.315 236.038,158.352 235.876,158.156 235.000 C 157.827 233.529,157.598 233.210,157.606 234.233 M106.049 237.000 C 106.011 237.660,105.541 239.992,105.005 242.183 C 104.470 244.373,104.098 246.232,104.179 246.313 C 104.347 246.480,104.405 246.285,105.594 241.541 C 106.071 239.639,106.384 237.569,106.290 236.941 L 106.120 235.800 106.049 237.000 M85.429 237.429 C 85.281 238.015,85.238 238.572,85.332 238.666 C 85.427 238.760,85.624 238.358,85.771 237.771 C 85.919 237.185,85.962 236.628,85.868 236.534 C 85.773 236.440,85.576 236.842,85.429 237.429 M137.634 236.800 C 137.646 237.130,137.811 237.760,138.000 238.200 L 138.344 239.000 138.366 238.200 C 138.378 237.760,138.213 237.130,138.000 236.800 C 137.655 236.267,137.615 236.267,137.634 236.800 M158.430 236.705 C 158.413 236.983,158.562 237.523,158.760 237.905 C 158.957 238.287,159.542 239.456,160.060 240.502 C 160.577 241.548,161.333 242.808,161.740 243.302 C 162.344 244.036,162.329 243.941,161.658 242.782 C 161.206 242.003,160.302 240.203,159.648 238.782 C 158.994 237.362,158.446 236.427,158.430 236.705 M352.654 238.754 C 352.500 239.718,352.458 240.591,352.561 240.694 C 352.830 240.963,353.315 238.145,353.107 237.522 C 353.012 237.236,352.808 237.790,352.654 238.754 M84.366 240.700 C 84.138 241.305,83.691 242.324,83.374 242.965 C 82.708 244.309,82.906 244.897,83.592 243.614 C 84.237 242.410,85.203 239.600,84.972 239.600 C 84.867 239.600,84.594 240.095,84.366 240.700 M138.428 239.876 C 138.518 240.915,139.144 241.796,139.172 240.924 C 139.187 240.442,139.020 239.936,138.800 239.800 C 138.580 239.664,138.413 239.698,138.428 239.876 M351.829 242.629 C 351.681 243.215,351.651 243.784,351.761 243.894 C 351.871 244.004,352.081 243.615,352.229 243.029 C 352.376 242.442,352.406 241.873,352.296 241.763 C 352.186 241.653,351.976 242.042,351.829 242.629 M372.043 246.513 C 371.760 247.881,371.266 249.697,370.947 250.550 C 370.628 251.402,370.438 252.171,370.526 252.259 C 370.758 252.492,371.825 249.354,372.416 246.698 C 372.698 245.432,372.846 244.312,372.744 244.211 C 372.642 244.109,372.327 245.145,372.043 246.513 M163.296 245.795 C 163.793 246.562,164.344 247.192,164.520 247.195 C 164.697 247.198,164.360 246.570,163.773 245.800 C 162.400 244.000,162.132 243.997,163.296 245.795 M81.177 246.700 C 80.420 247.745,79.731 248.780,79.646 249.000 C 79.434 249.551,81.986 246.368,82.452 245.500 C 83.124 244.250,82.585 244.757,81.177 246.700 M165.902 248.771 C 166.501 249.415,167.069 249.865,167.164 249.770 C 167.385 249.548,165.566 247.600,165.137 247.600 C 164.959 247.600,165.303 248.127,165.902 248.771 M347.823 250.322 C 345.872 252.571,345.868 252.579,347.555 251.000 C 348.976 249.669,350.347 247.938,349.914 248.022 C 349.851 248.034,348.910 249.069,347.823 250.322 M141.600 248.666 C 141.600 249.254,145.421 255.691,146.490 256.903 C 147.448 257.989,147.410 257.874,146.258 256.200 C 145.501 255.100,144.211 252.895,143.391 251.300 C 142.002 248.598,141.600 248.006,141.600 248.666 M102.393 250.272 C 101.493 252.607,101.495 252.729,102.407 251.072 C 102.870 250.231,103.188 249.364,103.115 249.144 C 103.041 248.924,102.716 249.431,102.393 250.272 M77.987 250.134 C 77.430 250.610,76.530 251.319,75.987 251.709 L 75.000 252.418 76.200 251.817 C 77.569 251.132,79.391 249.657,79.157 249.424 C 79.070 249.338,78.544 249.658,77.987 250.134 M167.776 250.361 C 168.154 250.973,171.621 253.312,171.834 253.099 C 171.932 253.001,170.999 252.249,169.762 251.427 C 168.524 250.605,167.630 250.126,167.776 250.361 M273.100 251.033 C 272.935 251.198,272.800 255.139,272.800 259.790 C 272.800 268.492,273.059 270.031,274.435 269.487 C 274.854 269.321,274.822 269.255,274.307 269.232 C 273.675 269.203,273.605 268.401,273.507 259.966 C 273.448 254.888,273.265 250.868,273.100 251.033 M275.000 251.200 C 276.196 251.714,277.195 251.714,276.400 251.200 C 276.070 250.987,275.440 250.822,275.000 250.834 L 274.200 250.856 275.000 251.200 M278.200 252.000 C 278.640 252.189,279.270 252.344,279.600 252.344 C 279.978 252.344,279.904 252.217,279.400 252.000 C 278.960 251.811,278.330 251.656,278.000 251.656 C 277.622 251.656,277.696 251.783,278.200 252.000 M73.200 253.200 C 72.430 253.622,71.944 253.974,72.120 253.983 C 72.544 254.005,74.800 252.832,74.800 252.590 C 74.800 252.328,74.777 252.337,73.200 253.200 M281.400 252.800 C 281.840 252.989,282.560 253.144,283.000 253.144 L 283.800 253.144 283.000 252.800 C 282.560 252.611,281.840 252.456,281.400 252.456 L 280.600 252.456 281.400 252.800 M344.300 253.029 C 343.695 253.357,343.200 253.710,343.200 253.813 C 343.200 254.199,343.832 253.957,344.800 253.200 C 345.989 252.270,345.811 252.209,344.300 253.029 M370.000 252.884 C 370.000 253.004,369.728 253.754,369.395 254.551 C 369.062 255.348,368.873 256.000,368.976 256.000 C 369.331 256.000,370.504 253.170,370.252 252.919 C 370.114 252.780,370.000 252.765,370.000 252.884 M285.000 253.600 C 285.440 253.789,286.160 253.944,286.600 253.944 L 287.400 253.944 286.600 253.600 C 286.160 253.411,285.440 253.256,285.000 253.256 L 284.200 253.256 285.000 253.600 M230.400 254.400 L 229.400 254.720 230.400 254.732 C 230.950 254.738,231.760 254.589,232.200 254.400 L 233.000 254.056 232.200 254.068 C 231.760 254.074,230.950 254.224,230.400 254.400 M289.000 254.400 C 289.440 254.589,290.340 254.735,291.000 254.725 L 292.200 254.705 291.000 254.400 C 290.340 254.232,289.440 254.086,289.000 254.075 L 288.200 254.056 289.000 254.400 M28.600 255.181 C 29.368 255.529,31.510 255.756,31.167 255.453 C 31.075 255.372,30.280 255.196,29.400 255.062 C 28.285 254.893,28.042 254.929,28.600 255.181 M176.400 255.200 C 176.730 255.413,177.270 255.588,177.600 255.588 C 178.133 255.588,178.133 255.545,177.600 255.200 C 177.270 254.987,176.730 254.812,176.400 254.812 C 175.867 254.812,175.867 254.855,176.400 255.200 M226.400 255.200 L 225.400 255.520 226.400 255.532 C 226.950 255.538,227.760 255.389,228.200 255.200 L 229.000 254.856 228.200 254.868 C 227.760 254.874,226.950 255.024,226.400 255.200 M293.800 255.200 C 294.240 255.389,295.140 255.535,295.800 255.525 L 297.000 255.505 295.800 255.200 C 295.140 255.032,294.240 254.886,293.800 254.875 L 293.000 254.856 293.800 255.200 M339.000 255.200 L 338.200 255.544 339.000 255.566 C 339.440 255.578,340.070 255.413,340.400 255.200 C 341.195 254.686,340.196 254.686,339.000 255.200 M32.600 256.000 C 33.040 256.189,34.120 256.336,35.000 256.326 L 36.600 256.308 35.000 255.977 C 34.120 255.795,33.040 255.648,32.600 255.651 L 31.800 255.656 32.600 256.000 M64.400 256.000 L 63.400 256.320 64.400 256.354 C 64.950 256.373,65.670 256.213,66.000 256.000 C 66.764 255.506,65.942 255.506,64.400 256.000 M179.200 255.982 C 179.530 256.205,180.145 256.391,180.567 256.394 C 181.590 256.402,181.271 256.173,179.800 255.844 C 178.924 255.648,178.762 255.685,179.200 255.982 M221.600 256.000 L 220.200 256.295 221.600 256.319 C 222.370 256.333,223.360 256.189,223.800 256.000 L 224.600 255.656 223.800 255.681 C 223.360 255.694,222.370 255.838,221.600 256.000 M299.200 256.000 C 299.750 256.176,300.920 256.317,301.800 256.314 L 303.400 256.308 301.800 255.977 C 300.920 255.795,299.750 255.654,299.200 255.663 L 298.200 255.680 299.200 256.000 M335.400 256.000 L 334.200 256.305 335.400 256.347 C 336.060 256.369,336.870 256.213,337.200 256.000 C 337.943 255.520,337.287 255.520,335.400 256.000 M39.000 256.789 C 40.192 257.103,45.886 257.333,45.567 257.054 C 45.475 256.974,43.690 256.811,41.600 256.691 C 39.441 256.567,38.318 256.609,39.000 256.789 M56.800 256.800 L 53.800 257.056 57.000 257.081 C 58.760 257.094,60.740 256.968,61.400 256.800 L 62.600 256.495 61.200 256.519 C 60.430 256.533,58.450 256.659,56.800 256.800 M182.800 256.797 C 183.341 257.150,186.764 257.399,186.367 257.056 C 186.275 256.977,185.300 256.799,184.200 256.659 C 182.835 256.486,182.390 256.530,182.800 256.797 M215.600 256.800 L 213.800 257.080 215.600 257.112 C 216.590 257.129,217.760 256.989,218.200 256.800 L 219.000 256.456 218.200 256.488 C 217.760 256.506,216.590 256.646,215.600 256.800 M307.200 256.817 C 308.965 257.134,317.894 257.339,317.567 257.056 C 317.475 256.976,314.700 256.817,311.400 256.703 C 307.813 256.578,306.124 256.624,307.200 256.817 M329.000 256.800 L 327.000 257.074 329.200 257.097 C 330.410 257.110,331.850 256.976,332.400 256.800 C 333.708 256.381,332.054 256.381,329.000 256.800 M367.098 258.796 C 366.313 260.118,365.747 261.200,365.841 261.200 C 366.132 261.200,368.876 256.743,368.696 256.563 C 368.602 256.469,367.883 257.474,367.098 258.796 M188.475 257.660 C 189.661 257.994,209.819 257.987,211.375 257.653 C 212.021 257.514,206.925 257.400,200.050 257.400 C 193.176 257.400,187.967 257.517,188.475 257.660 M96.974 259.900 C 96.055 261.128,96.017 261.256,96.763 260.604 C 97.631 259.846,98.614 258.400,98.262 258.400 C 98.170 258.400,97.590 259.075,96.974 259.900 M149.256 260.316 C 150.215 261.480,151.990 263.155,153.200 264.039 L 155.400 265.645 153.602 264.122 C 152.614 263.285,150.839 261.610,149.658 260.400 L 147.512 258.200 149.256 260.316 M94.486 262.624 C 93.983 263.161,93.727 263.600,93.916 263.600 C 94.106 263.600,94.683 263.150,95.200 262.600 C 95.717 262.050,95.973 261.611,95.770 261.624 C 95.566 261.638,94.989 262.088,94.486 262.624 M363.259 263.566 C 362.302 264.593,360.451 266.124,359.145 266.969 C 357.840 267.814,356.860 268.594,356.968 268.701 C 357.280 269.013,362.031 265.447,363.983 263.437 C 364.964 262.426,365.594 261.622,365.383 261.650 C 365.172 261.677,364.217 262.540,363.259 263.566 M91.192 265.526 C 90.197 266.337,88.847 267.418,88.192 267.930 C 86.413 269.318,87.901 268.471,90.200 266.787 C 91.927 265.523,93.610 263.946,93.149 264.026 C 93.067 264.040,92.186 264.715,91.192 265.526 M156.800 266.560 C 156.800 266.859,160.406 268.927,160.596 268.737 C 160.684 268.649,159.866 268.077,158.778 267.466 C 157.690 266.854,156.800 266.447,156.800 266.560 M83.750 270.045 C 82.402 270.694,80.332 271.573,79.150 271.998 C 77.967 272.423,77.270 272.779,77.600 272.788 C 78.361 272.809,84.210 270.481,85.800 269.525 C 87.609 268.436,86.513 268.715,83.750 270.045 M161.200 268.981 C 161.200 269.464,170.117 272.826,171.271 272.778 C 171.562 272.766,170.236 272.235,168.325 271.599 C 166.414 270.963,164.126 270.073,163.241 269.621 C 161.602 268.785,161.200 268.659,161.200 268.981 M245.200 269.200 C 244.376 269.464,244.341 269.526,245.000 269.554 C 245.440 269.573,246.070 269.413,246.400 269.200 C 247.101 268.747,246.614 268.747,245.200 269.200 M242.000 270.000 L 241.000 270.320 242.000 270.354 C 242.550 270.373,243.270 270.213,243.600 270.000 C 244.364 269.506,243.542 269.506,242.000 270.000 M353.807 270.084 C 353.371 270.337,351.571 271.045,349.807 271.658 C 348.043 272.271,346.871 272.779,347.202 272.786 C 348.363 272.813,354.800 270.271,354.800 269.786 C 354.800 269.532,354.717 269.557,353.807 270.084 M234.400 271.600 C 231.430 272.221,229.337 272.745,229.750 272.765 C 230.622 272.806,240.486 270.848,240.753 270.580 C 241.072 270.262,239.910 270.448,234.400 271.600 M278.200 270.770 C 279.877 271.453,281.887 271.999,282.628 271.973 C 283.053 271.959,282.672 271.718,281.782 271.440 C 279.786 270.814,277.055 270.304,278.200 270.770 M284.200 272.390 C 284.964 272.728,287.514 272.957,287.167 272.656 C 287.075 272.576,286.190 272.404,285.200 272.273 C 283.998 272.114,283.666 272.153,284.200 272.390 M26.948 272.717 C 27.102 272.965,27.897 273.282,28.714 273.419 C 29.531 273.557,30.560 273.766,31.000 273.885 C 31.440 274.003,31.672 273.964,31.516 273.799 C 31.360 273.634,30.550 273.364,29.716 273.199 C 28.882 273.035,27.855 272.757,27.434 272.582 C 26.905 272.362,26.755 272.404,26.948 272.717 M74.880 273.195 C 74.154 273.367,73.447 273.620,73.309 273.758 C 72.971 274.096,75.644 273.576,76.400 273.157 C 77.116 272.760,76.668 272.771,74.880 273.195 M344.296 273.184 C 343.468 273.344,342.681 273.586,342.546 273.721 C 342.203 274.064,345.269 273.564,346.000 273.158 C 346.691 272.774,346.387 272.778,344.296 273.184 M175.000 273.746 C 177.205 274.358,181.511 274.978,181.169 274.635 C 181.049 274.516,179.792 274.232,178.376 274.004 C 173.427 273.208,172.919 273.169,175.000 273.746 M222.800 273.607 C 222.179 273.811,222.709 273.851,224.200 273.712 C 225.520 273.589,226.675 273.424,226.767 273.344 C 227.089 273.065,223.788 273.284,222.800 273.607 M289.233 273.344 C 289.325 273.424,290.480 273.589,291.800 273.712 C 293.291 273.851,293.821 273.811,293.200 273.607 C 292.212 273.284,288.911 273.065,289.233 273.344 M32.033 274.146 C 32.125 274.226,33.190 274.394,34.400 274.519 C 35.820 274.666,36.246 274.629,35.600 274.413 C 34.609 274.083,31.713 273.865,32.033 274.146 M69.600 274.420 C 68.926 274.649,69.251 274.684,70.600 274.528 C 71.700 274.401,72.675 274.231,72.767 274.149 C 73.082 273.868,70.599 274.080,69.600 274.420 M217.000 274.411 C 216.272 274.602,216.902 274.641,218.600 274.509 C 220.140 274.389,221.475 274.225,221.567 274.145 C 221.873 273.878,218.216 274.091,217.000 274.411 M294.433 274.144 C 294.525 274.224,295.950 274.385,297.600 274.503 C 299.358 274.628,300.103 274.588,299.400 274.406 C 298.187 274.091,294.125 273.878,294.433 274.144 M338.400 274.413 C 337.754 274.629,338.180 274.666,339.600 274.519 C 340.810 274.394,341.875 274.226,341.967 274.146 C 342.287 273.865,339.391 274.083,338.400 274.413 M39.400 275.215 C 42.875 275.647,45.808 275.619,43.000 275.182 C 41.900 275.010,40.100 274.881,39.000 274.894 L 37.000 274.918 39.400 275.215 M63.000 275.213 C 62.290 275.401,63.106 275.441,65.000 275.312 C 66.760 275.191,68.275 275.026,68.367 274.946 C 68.680 274.671,64.203 274.894,63.000 275.213 M181.633 274.949 C 181.725 275.031,183.510 275.197,185.600 275.318 C 188.263 275.472,188.862 275.436,187.600 275.198 C 185.790 274.857,181.322 274.671,181.633 274.949 M208.400 275.219 C 207.358 275.393,208.369 275.430,210.800 275.309 C 213.110 275.194,215.075 275.032,215.167 274.950 C 215.448 274.697,210.311 274.902,208.400 275.219 M301.233 274.947 C 301.325 275.027,303.470 275.191,306.000 275.311 C 309.012 275.453,309.979 275.412,308.800 275.193 C 307.019 274.863,300.912 274.664,301.233 274.947 M331.600 275.218 C 330.763 275.405,331.568 275.444,333.600 275.314 C 335.470 275.195,337.075 275.030,337.167 274.949 C 337.465 274.683,333.039 274.897,331.600 275.218 M49.900 275.898 C 51.935 275.971,55.265 275.971,57.300 275.898 C 59.335 275.825,57.670 275.766,53.600 275.766 C 49.530 275.766,47.865 275.825,49.900 275.898 M194.121 275.898 C 196.277 275.971,199.697 275.970,201.721 275.898 C 203.744 275.825,201.980 275.766,197.800 275.767 C 193.620 275.767,191.964 275.826,194.121 275.898 M316.500 275.898 C 318.865 275.969,322.735 275.969,325.100 275.898 C 327.465 275.828,325.530 275.770,320.800 275.770 C 316.070 275.770,314.135 275.828,316.500 275.898 " stroke="none" fill="#ac84d4" fill-rule="evenodd"></path><path id="path4" d="M199.200 124.360 C 198.210 124.492,201.270 124.613,206.000 124.630 C 212.657 124.653,213.696 124.596,210.600 124.377 C 205.818 124.039,201.658 124.032,199.200 124.360 M320.400 124.365 C 319.190 124.494,321.890 124.609,326.400 124.619 C 331.104 124.631,333.833 124.515,332.800 124.349 C 330.716 124.014,323.608 124.023,320.400 124.365 M188.400 125.212 C 187.981 125.491,188.342 125.533,189.600 125.350 C 191.841 125.025,192.160 124.798,190.367 124.806 C 189.615 124.809,188.730 124.992,188.400 125.212 M226.433 124.947 C 226.525 125.028,227.770 125.202,229.200 125.335 C 230.876 125.491,231.516 125.448,231.000 125.216 C 230.247 124.877,226.075 124.631,226.433 124.947 M311.015 125.176 C 310.876 125.401,311.391 125.459,312.291 125.320 C 314.300 125.010,314.461 124.800,312.690 124.800 C 311.897 124.800,311.143 124.969,311.015 125.176 M340.833 124.944 C 340.925 125.023,341.900 125.201,343.000 125.341 C 344.365 125.514,344.810 125.470,344.400 125.203 C 343.859 124.850,340.436 124.601,340.833 124.944 M183.200 126.000 C 182.405 126.514,183.404 126.514,184.600 126.000 L 185.400 125.656 184.600 125.634 C 184.160 125.622,183.530 125.787,183.200 126.000 M236.433 125.747 C 236.525 125.828,237.320 126.014,238.200 126.162 C 239.346 126.354,239.630 126.314,239.200 126.021 C 238.660 125.653,236.032 125.393,236.433 125.747 M306.600 126.000 C 306.308 126.473,306.699 126.473,307.800 126.000 C 308.571 125.669,308.569 125.655,307.724 125.628 C 307.242 125.613,306.736 125.780,306.600 126.000 M349.200 126.000 C 350.742 126.494,351.564 126.494,350.800 126.000 C 350.470 125.787,349.750 125.627,349.200 125.646 L 348.200 125.680 349.200 126.000 M87.443 127.033 C 87.309 127.381,87.244 149.296,87.298 175.733 L 87.395 223.800 87.598 175.400 L 87.800 127.000 97.862 127.000 C 103.396 127.000,107.841 126.865,107.738 126.700 C 107.325 126.032,87.704 126.353,87.443 127.033 M243.700 126.832 C 244.329 127.198,244.409 128.143,244.491 136.120 L 244.583 145.000 244.705 136.600 C 244.837 127.442,244.733 126.394,243.692 126.412 C 243.041 126.424,243.041 126.448,243.700 126.832 M164.300 132.027 C 163.475 132.463,162.800 132.908,162.800 133.018 C 162.800 133.196,165.959 131.719,166.367 131.351 C 166.827 130.934,165.625 131.328,164.300 132.027 M286.044 134.604 C 285.078 135.372,284.448 135.993,284.644 135.985 C 285.016 135.969,288.349 133.213,288.000 133.210 C 287.890 133.209,287.010 133.836,286.044 134.604 M159.600 134.836 C 158.936 135.379,158.869 135.515,159.400 135.240 C 160.705 134.566,161.428 134.012,161.000 134.015 C 160.780 134.017,160.150 134.386,159.600 134.836 M153.062 140.100 L 150.140 143.000 152.970 140.422 C 154.526 139.004,155.971 137.699,156.180 137.522 C 156.389 137.345,156.430 137.200,156.272 137.200 C 156.114 137.200,154.669 138.505,153.062 140.100 M280.575 140.268 C 279.959 141.076,279.659 141.611,279.909 141.456 C 280.421 141.140,282.153 138.800,281.875 138.800 C 281.776 138.800,281.191 139.461,280.575 140.268 M192.600 143.600 L 191.000 143.886 192.600 143.915 C 193.480 143.931,194.560 143.789,195.000 143.600 L 195.800 143.256 195.000 143.285 C 194.560 143.301,193.480 143.442,192.600 143.600 M220.400 143.602 C 222.652 143.928,228.667 144.118,228.367 143.853 C 228.275 143.772,225.950 143.610,223.200 143.494 C 219.964 143.357,218.976 143.395,220.400 143.602 M315.400 143.600 L 313.800 143.886 315.200 143.903 C 315.970 143.913,317.050 143.776,317.600 143.600 C 318.885 143.188,317.699 143.188,315.400 143.600 M336.600 143.592 C 337.357 143.925,341.121 144.163,340.767 143.856 C 340.675 143.776,339.520 143.605,338.200 143.476 C 336.676 143.326,336.092 143.369,336.600 143.592 M148.700 144.614 C 147.701 145.950,147.831 146.323,148.846 145.033 C 149.311 144.442,149.626 143.895,149.546 143.818 C 149.466 143.741,149.085 144.100,148.700 144.614 M187.400 144.400 L 186.600 144.744 187.400 144.766 C 187.840 144.778,188.470 144.613,188.800 144.400 C 189.595 143.886,188.596 143.886,187.400 144.400 M235.400 144.400 C 236.060 144.568,237.500 144.703,238.600 144.699 L 240.600 144.693 238.600 144.382 C 237.500 144.210,236.060 144.076,235.400 144.082 L 234.200 144.095 235.400 144.400 M310.200 144.400 C 309.429 144.731,309.431 144.745,310.276 144.772 C 310.758 144.787,311.264 144.620,311.400 144.400 C 311.692 143.927,311.301 143.927,310.200 144.400 M345.200 144.405 C 345.530 144.616,346.325 144.791,346.967 144.794 C 348.514 144.802,348.177 144.571,346.200 144.268 C 345.110 144.101,344.791 144.145,345.200 144.405 M350.800 145.182 C 351.130 145.405,351.745 145.591,352.167 145.594 C 353.190 145.602,352.871 145.373,351.400 145.044 C 350.524 144.848,350.362 144.885,350.800 145.182 M355.600 145.982 C 355.930 146.205,356.545 146.391,356.967 146.394 C 357.990 146.402,357.671 146.173,356.200 145.844 C 355.324 145.648,355.162 145.685,355.600 145.982 M359.200 146.782 C 359.530 147.005,360.145 147.191,360.567 147.194 C 361.590 147.202,361.271 146.973,359.800 146.644 C 358.924 146.448,358.762 146.485,359.200 146.782 M174.600 148.800 C 173.940 149.237,173.580 149.592,173.800 149.588 C 174.201 149.582,176.376 148.023,176.000 148.012 C 175.890 148.008,175.260 148.363,174.600 148.800 M298.171 150.103 L 297.000 151.397 298.200 150.399 C 298.860 149.849,299.475 149.355,299.567 149.300 C 299.658 149.245,299.645 149.112,299.538 149.004 C 299.430 148.896,298.815 149.391,298.171 150.103 M171.260 150.803 C 170.347 151.464,169.600 152.103,169.600 152.223 C 169.600 152.411,171.854 150.877,172.980 149.922 C 173.927 149.119,172.756 149.718,171.260 150.803 M166.810 154.590 C 165.620 155.795,164.726 156.836,164.823 156.905 C 164.921 156.973,165.974 155.988,167.163 154.715 C 169.906 151.781,169.667 151.697,166.810 154.590 M273.449 157.015 C 273.312 157.373,273.218 158.146,273.240 158.733 C 273.273 159.591,273.352 159.495,273.646 158.240 C 274.022 156.639,273.895 155.853,273.449 157.015 M163.406 158.688 L 162.704 159.800 163.630 158.911 C 164.139 158.422,164.455 157.922,164.332 157.799 C 164.209 157.676,163.792 158.076,163.406 158.688 M293.654 159.867 C 293.625 160.344,293.496 161.064,293.370 161.467 C 293.152 162.161,293.164 162.162,293.596 161.488 C 293.847 161.097,293.975 160.377,293.881 159.888 C 293.709 159.001,293.709 159.001,293.654 159.867 M272.598 165.300 C 272.447 167.115,272.478 169.860,272.665 171.400 C 272.962 173.835,273.007 173.405,273.012 168.100 C 273.019 161.082,272.974 160.774,272.598 165.300 M136.649 169.415 C 136.512 169.773,136.418 170.456,136.441 170.933 C 136.467 171.481,136.603 171.286,136.810 170.403 C 137.160 168.916,137.065 168.333,136.649 169.415 M293.228 171.476 C 293.318 172.515,293.944 173.396,293.972 172.524 C 293.987 172.042,293.820 171.536,293.600 171.400 C 293.380 171.264,293.213 171.298,293.228 171.476 M135.849 173.015 C 135.712 173.373,135.621 174.146,135.646 174.733 C 135.680 175.532,135.770 175.398,136.004 174.200 C 136.335 172.500,136.262 171.940,135.849 173.015 M273.206 177.233 C 273.209 177.765,273.389 178.470,273.606 178.800 C 273.882 179.222,273.923 178.985,273.742 178.000 C 273.425 176.275,273.198 175.949,273.206 177.233 M134.909 179.600 C 134.909 180.590,134.987 180.995,135.082 180.500 C 135.178 180.005,135.178 179.195,135.082 178.700 C 134.987 178.205,134.909 178.610,134.909 179.600 M295.949 178.705 C 296.480 179.696,299.264 182.208,300.465 182.779 C 301.327 183.189,301.322 183.169,300.400 182.532 C 299.850 182.152,298.531 180.964,297.470 179.891 C 296.408 178.818,295.724 178.284,295.949 178.705 M155.822 180.622 C 155.672 181.425,155.628 182.162,155.726 182.260 C 155.824 182.357,156.027 181.781,156.178 180.978 C 156.328 180.175,156.372 179.438,156.274 179.340 C 156.176 179.243,155.973 179.819,155.822 180.622 M134.134 186.000 C 134.134 187.650,134.205 188.325,134.291 187.500 C 134.378 186.675,134.378 185.325,134.291 184.500 C 134.205 183.675,134.134 184.350,134.134 186.000 M302.400 183.800 C 302.950 184.114,303.670 184.371,304.000 184.370 C 304.330 184.369,303.994 184.106,303.254 183.784 C 301.551 183.045,301.094 183.053,302.400 183.800 M305.633 184.944 C 305.725 185.023,306.340 185.208,307.000 185.356 C 307.876 185.552,308.038 185.515,307.600 185.218 C 307.060 184.853,305.232 184.598,305.633 184.944 M155.015 187.415 C 154.861 188.654,154.817 189.750,154.919 189.852 C 155.020 189.954,155.230 189.023,155.385 187.785 C 155.539 186.546,155.583 185.450,155.481 185.348 C 155.380 185.246,155.170 186.177,155.015 187.415 M309.600 186.000 C 310.968 186.438,312.019 186.438,311.000 186.000 C 310.560 185.811,309.840 185.662,309.400 185.668 C 308.757 185.677,308.796 185.743,309.600 186.000 M312.033 186.543 C 312.125 186.621,312.830 186.801,313.600 186.942 C 314.585 187.123,314.822 187.082,314.400 186.806 C 313.858 186.450,311.637 186.203,312.033 186.543 M315.233 187.343 C 315.325 187.421,316.030 187.601,316.800 187.742 C 317.785 187.923,318.022 187.882,317.600 187.606 C 317.058 187.250,314.837 187.003,315.233 187.343 M323.000 189.200 C 324.101 189.673,324.492 189.673,324.200 189.200 C 324.064 188.980,323.558 188.813,323.076 188.828 C 322.231 188.855,322.229 188.869,323.000 189.200 M133.709 191.200 C 133.709 192.190,133.787 192.595,133.882 192.100 C 133.978 191.605,133.978 190.795,133.882 190.300 C 133.787 189.805,133.709 190.210,133.709 191.200 M279.038 191.641 C 279.594 192.625,281.615 194.919,281.777 194.750 C 281.856 194.668,281.190 193.790,280.298 192.800 C 279.406 191.810,278.839 191.288,279.038 191.641 M133.358 200.600 C 133.358 203.680,133.421 204.887,133.497 203.282 C 133.573 201.678,133.573 199.158,133.496 197.682 C 133.419 196.207,133.357 197.520,133.358 200.600 M252.400 231.767 L 252.400 267.134 250.591 267.825 C 249.596 268.205,248.861 268.595,248.958 268.691 C 249.054 268.788,249.958 268.502,250.967 268.056 L 252.800 267.245 252.800 231.822 C 252.800 212.340,252.710 196.400,252.600 196.400 C 252.490 196.400,252.400 212.315,252.400 231.767 M355.295 197.820 C 355.458 197.987,356.358 198.467,357.295 198.885 C 358.233 199.304,358.820 199.465,358.600 199.244 C 358.380 199.023,357.480 198.543,356.600 198.179 C 355.720 197.814,355.133 197.653,355.295 197.820 M292.000 201.431 C 292.000 201.701,294.078 202.456,294.276 202.257 C 294.367 202.167,293.892 201.901,293.220 201.667 C 292.549 201.433,292.000 201.327,292.000 201.431 M366.192 204.800 C 367.494 206.230,368.638 207.490,368.734 207.600 C 368.830 207.710,368.718 207.440,368.484 207.000 C 368.251 206.560,367.107 205.300,365.942 204.200 L 363.824 202.200 366.192 204.800 M133.714 210.200 C 133.717 211.300,133.795 211.703,133.887 211.095 C 133.979 210.486,133.977 209.586,133.882 209.095 C 133.787 208.603,133.711 209.100,133.714 210.200 M321.000 209.200 C 321.136 209.420,321.642 209.587,322.124 209.572 C 322.969 209.545,322.971 209.531,322.200 209.200 C 321.099 208.727,320.708 208.727,321.000 209.200 M331.000 211.600 C 331.136 211.820,331.642 211.987,332.124 211.972 C 332.969 211.945,332.971 211.931,332.200 211.600 C 331.099 211.127,330.708 211.127,331.000 211.600 M334.400 212.382 C 334.730 212.605,335.345 212.791,335.767 212.794 C 336.790 212.802,336.471 212.573,335.000 212.244 C 334.124 212.048,333.962 212.085,334.400 212.382 M134.137 216.600 C 134.139 218.360,134.209 219.030,134.293 218.089 C 134.378 217.149,134.377 215.709,134.291 214.889 C 134.205 214.070,134.136 214.840,134.137 216.600 M154.847 214.833 C 154.873 215.585,155.041 216.740,155.220 217.400 C 155.435 218.189,155.470 217.778,155.323 216.200 C 155.077 213.555,154.773 212.681,154.847 214.833 M204.728 214.300 C 210.078 214.363,218.718 214.363,223.928 214.300 C 229.137 214.236,224.760 214.185,214.200 214.185 C 203.640 214.185,199.377 214.237,204.728 214.300 M346.600 216.865 C 347.040 217.107,347.948 217.777,348.618 218.353 C 349.296 218.936,349.170 218.735,348.333 217.900 C 347.507 217.075,346.599 216.405,346.315 216.412 C 346.032 216.419,346.160 216.623,346.600 216.865 M155.680 222.200 C 155.680 222.640,155.824 223.450,156.000 224.000 C 156.254 224.792,156.320 224.833,156.320 224.200 C 156.320 223.760,156.176 222.950,156.000 222.400 C 155.746 221.608,155.680 221.567,155.680 222.200 M134.914 224.200 C 134.917 225.300,134.995 225.703,135.087 225.095 C 135.179 224.486,135.177 223.586,135.082 223.095 C 134.987 222.603,134.911 223.100,134.914 224.200 M373.800 231.575 C 373.800 235.726,373.932 238.915,374.094 238.661 C 374.462 238.084,374.442 225.648,374.072 224.714 C 373.922 224.336,373.800 227.424,373.800 231.575 M352.028 225.433 C 352.044 226.075,352.216 226.960,352.410 227.400 C 352.647 227.934,352.686 227.602,352.527 226.400 C 352.246 224.280,351.988 223.780,352.028 225.433 M86.672 227.404 C 86.527 228.282,86.430 229.630,86.455 230.400 C 86.484 231.278,86.629 230.830,86.844 229.200 C 87.224 226.315,87.087 224.889,86.672 227.404 M107.667 227.650 C 107.630 228.228,107.505 229.308,107.389 230.050 C 107.196 231.286,107.215 231.317,107.608 230.414 C 107.845 229.871,107.970 228.791,107.886 228.014 C 107.777 226.992,107.716 226.891,107.667 227.650 M135.628 229.633 C 135.644 230.385,135.812 231.360,136.003 231.800 C 136.226 232.315,136.267 231.887,136.118 230.600 C 135.844 228.222,135.589 227.719,135.628 229.633 M352.893 232.000 C 352.893 232.770,352.975 233.085,353.076 232.700 C 353.176 232.315,353.176 231.685,353.076 231.300 C 352.975 230.915,352.893 231.230,352.893 232.000 M85.849 233.415 C 85.712 233.773,85.618 234.456,85.641 234.933 C 85.667 235.481,85.803 235.286,86.010 234.403 C 86.360 232.916,86.265 232.333,85.849 233.415 M136.406 233.833 C 136.409 234.255,136.595 234.870,136.818 235.200 C 137.115 235.638,137.152 235.476,136.956 234.600 C 136.627 233.129,136.398 232.810,136.406 233.833 M137.206 236.833 C 137.209 237.365,137.389 238.070,137.606 238.400 C 137.882 238.822,137.923 238.585,137.742 237.600 C 137.425 235.875,137.198 235.549,137.206 236.833 M352.256 237.684 C 352.121 238.188,352.031 239.230,352.055 240.000 C 352.089 241.069,352.175 240.880,352.418 239.202 C 352.753 236.892,352.672 236.133,352.256 237.684 M161.800 242.800 C 162.141 243.460,162.511 244.000,162.621 244.000 C 162.731 244.000,162.541 243.460,162.200 242.800 C 161.859 242.140,161.489 241.600,161.379 241.600 C 161.269 241.600,161.459 242.140,161.800 242.800 M351.449 242.215 C 351.312 242.573,351.215 243.166,351.234 243.533 C 351.253 243.900,351.427 243.669,351.621 243.020 C 351.998 241.758,351.865 241.133,351.449 242.215 M82.678 243.405 C 82.312 244.172,82.095 244.800,82.196 244.800 C 82.470 244.800,83.684 242.351,83.501 242.168 C 83.414 242.081,83.044 242.638,82.678 243.405 M373.246 243.067 C 373.221 243.324,373.084 243.864,372.941 244.267 C 372.740 244.836,372.794 244.897,373.179 244.542 C 373.452 244.291,373.589 243.751,373.484 243.342 C 373.379 242.934,373.272 242.810,373.246 243.067 M165.983 248.100 C 167.641 249.866,168.000 250.184,168.000 249.883 C 168.000 249.819,167.145 248.964,166.100 247.983 L 164.200 246.200 165.983 248.100 M78.826 248.922 L 77.851 250.200 79.126 249.025 C 80.451 247.803,80.603 247.585,80.100 247.622 C 79.935 247.634,79.362 248.219,78.826 248.922 M76.148 250.934 C 75.460 251.410,74.560 252.027,74.148 252.304 C 73.737 252.582,74.132 252.460,75.027 252.034 C 75.921 251.607,76.889 250.975,77.176 250.629 C 77.843 249.825,77.684 249.872,76.148 250.934 M272.653 250.606 C 272.298 251.530,272.347 268.498,272.706 269.063 C 272.868 269.317,273.000 265.267,273.000 260.063 C 273.000 249.443,272.722 250.292,276.000 250.919 C 276.861 251.083,277.169 251.052,276.800 250.838 C 275.454 250.057,272.918 249.915,272.653 250.606 M277.633 251.344 C 277.725 251.423,278.340 251.608,279.000 251.756 C 279.876 251.952,280.038 251.915,279.600 251.618 C 279.060 251.253,277.232 250.998,277.633 251.344 M171.600 252.420 C 172.987 253.361,173.778 253.635,172.800 252.836 C 172.250 252.386,171.620 252.017,171.400 252.015 C 171.180 252.013,171.270 252.196,171.600 252.420 M280.833 252.143 C 280.925 252.221,281.630 252.401,282.400 252.542 C 283.385 252.723,283.622 252.682,283.200 252.406 C 282.658 252.050,280.437 251.803,280.833 252.143 M370.267 253.667 C 369.905 254.588,369.674 255.407,369.754 255.488 C 369.834 255.568,370.200 254.883,370.567 253.967 C 370.933 253.050,371.164 252.231,371.079 252.146 C 370.994 252.061,370.629 252.745,370.267 253.667 M230.400 254.006 C 229.978 254.282,230.215 254.323,231.200 254.142 C 232.925 253.825,233.251 253.598,231.967 253.606 C 231.435 253.609,230.730 253.789,230.400 254.006 M288.433 253.744 C 288.525 253.824,289.410 253.996,290.400 254.127 C 291.602 254.286,291.934 254.247,291.400 254.010 C 290.636 253.672,288.086 253.443,288.433 253.744 M28.433 254.544 C 28.525 254.623,29.140 254.808,29.800 254.956 C 30.676 255.152,30.838 255.115,30.400 254.818 C 29.860 254.453,28.032 254.198,28.433 254.544 M67.400 254.800 C 67.108 255.273,67.499 255.273,68.600 254.800 C 69.371 254.469,69.369 254.455,68.524 254.428 C 68.042 254.413,67.536 254.580,67.400 254.800 M226.000 254.800 C 225.236 255.294,226.058 255.294,227.600 254.800 L 228.600 254.480 227.600 254.446 C 227.050 254.427,226.330 254.587,226.000 254.800 M293.633 254.543 C 293.725 254.621,294.430 254.801,295.200 254.942 C 296.185 255.123,296.422 255.082,296.000 254.806 C 295.458 254.450,293.237 254.203,293.633 254.543 M32.433 255.344 C 32.525 255.424,33.410 255.596,34.400 255.727 C 35.602 255.886,35.934 255.847,35.400 255.610 C 34.636 255.272,32.086 255.043,32.433 255.344 M64.000 255.606 C 63.578 255.882,63.815 255.923,64.800 255.742 C 66.525 255.425,66.851 255.198,65.567 255.206 C 65.035 255.209,64.330 255.389,64.000 255.606 M178.833 255.344 C 178.925 255.423,179.540 255.608,180.200 255.756 C 181.076 255.952,181.238 255.915,180.800 255.618 C 180.260 255.253,178.432 254.998,178.833 255.344 M221.200 255.612 C 220.781 255.891,221.142 255.933,222.400 255.750 C 224.641 255.425,224.960 255.198,223.167 255.206 C 222.415 255.209,221.530 255.392,221.200 255.612 M298.833 255.346 C 298.925 255.426,299.990 255.600,301.200 255.732 C 302.637 255.888,303.122 255.848,302.600 255.614 C 301.843 255.275,298.479 255.036,298.833 255.346 M335.200 255.606 C 334.778 255.882,335.015 255.923,336.000 255.742 C 337.725 255.425,338.051 255.198,336.767 255.206 C 336.235 255.209,335.530 255.389,335.200 255.606 M38.033 256.144 C 38.125 256.223,39.460 256.384,41.000 256.501 C 42.627 256.625,43.381 256.581,42.800 256.397 C 41.811 256.083,37.712 255.866,38.033 256.144 M57.600 256.402 C 57.000 256.595,57.640 256.637,59.200 256.506 C 60.630 256.386,61.875 256.223,61.967 256.144 C 62.289 255.865,58.588 256.084,57.600 256.402 M182.433 256.147 C 182.525 256.228,183.320 256.404,184.200 256.538 C 185.315 256.707,185.558 256.671,185.000 256.419 C 184.232 256.071,182.090 255.844,182.433 256.147 M215.600 256.420 C 214.926 256.649,215.251 256.684,216.600 256.528 C 217.700 256.401,218.675 256.231,218.767 256.149 C 219.082 255.868,216.599 256.080,215.600 256.420 M306.033 256.144 C 306.125 256.224,307.910 256.383,310.000 256.500 C 312.523 256.640,313.262 256.599,312.200 256.378 C 310.622 256.051,305.710 255.864,306.033 256.144 M328.800 256.407 C 328.179 256.611,328.709 256.651,330.200 256.512 C 331.520 256.389,332.675 256.224,332.767 256.144 C 333.089 255.865,329.788 256.084,328.800 256.407 M368.400 257.600 C 367.951 258.480,367.674 259.200,367.784 259.200 C 367.894 259.200,368.351 258.480,368.800 257.600 C 369.249 256.720,369.526 256.000,369.416 256.000 C 369.306 256.000,368.849 256.720,368.400 257.600 M98.485 258.600 C 97.787 259.590,97.349 260.400,97.512 260.400 C 97.675 260.400,98.058 259.995,98.365 259.500 C 98.671 259.005,99.185 258.195,99.507 257.700 C 100.566 256.070,99.781 256.762,98.485 258.600 M188.033 256.946 C 188.125 257.026,189.640 257.191,191.400 257.312 C 193.294 257.441,194.110 257.401,193.400 257.213 C 192.197 256.894,187.720 256.671,188.033 256.946 M206.000 257.218 C 205.163 257.405,205.968 257.444,208.000 257.314 C 209.870 257.195,211.475 257.030,211.567 256.949 C 211.865 256.683,207.439 256.897,206.000 257.218 M150.000 261.744 C 150.990 262.800,152.340 264.040,153.000 264.497 C 154.390 265.461,154.279 265.344,150.800 262.184 C 148.489 260.085,148.400 260.036,150.000 261.744 M94.778 263.100 L 93.400 264.600 94.900 263.222 C 96.296 261.938,96.584 261.600,96.278 261.600 C 96.212 261.600,95.537 262.275,94.778 263.100 M364.575 263.068 C 363.959 263.876,363.659 264.411,363.909 264.256 C 364.421 263.940,366.153 261.600,365.875 261.600 C 365.776 261.600,365.191 262.261,364.575 263.068 M361.775 265.700 L 360.600 267.000 361.900 265.825 C 362.615 265.179,363.200 264.594,363.200 264.525 C 363.200 264.216,362.870 264.488,361.775 265.700 M90.000 267.055 C 87.929 268.681,87.797 268.800,88.061 268.800 C 88.168 268.800,89.221 268.080,90.400 267.200 C 91.579 266.320,92.377 265.609,92.172 265.621 C 91.968 265.632,90.990 266.277,90.000 267.055 M84.800 270.200 C 83.810 270.730,83.142 271.172,83.316 271.182 C 83.741 271.206,86.800 269.634,86.800 269.392 C 86.800 269.127,86.817 269.120,84.800 270.200 M244.000 270.018 C 243.562 270.315,243.724 270.352,244.600 270.156 C 246.071 269.827,246.390 269.598,245.367 269.606 C 244.945 269.609,244.330 269.795,244.000 270.018 M228.600 273.200 L 227.800 273.544 228.600 273.566 C 229.040 273.578,229.670 273.413,230.000 273.200 C 230.795 272.686,229.796 272.686,228.600 273.200 M223.600 274.000 C 222.776 274.264,222.741 274.326,223.400 274.354 C 223.840 274.373,224.470 274.213,224.800 274.000 C 225.501 273.547,225.014 273.547,223.600 274.000 M290.800 274.000 C 291.130 274.213,291.760 274.378,292.200 274.366 L 293.000 274.344 292.200 274.000 C 291.004 273.486,290.005 273.486,290.800 274.000 M33.400 274.800 C 33.840 274.989,34.560 275.138,35.000 275.132 C 35.643 275.123,35.604 275.057,34.800 274.800 C 33.432 274.362,32.381 274.362,33.400 274.800 M70.200 274.800 C 69.696 275.017,69.622 275.144,70.000 275.144 C 70.330 275.144,70.960 274.989,71.400 274.800 C 71.904 274.583,71.978 274.456,71.600 274.456 C 71.270 274.456,70.640 274.611,70.200 274.800 M178.400 274.782 C 178.730 275.005,179.345 275.191,179.767 275.194 C 180.790 275.202,180.471 274.973,179.000 274.644 C 178.124 274.448,177.962 274.485,178.400 274.782 M217.800 274.800 L 216.600 275.105 217.800 275.125 C 218.460 275.135,219.360 274.989,219.800 274.800 L 220.600 274.456 219.800 274.475 C 219.360 274.486,218.460 274.632,217.800 274.800 M296.600 274.790 C 297.364 275.128,299.914 275.357,299.567 275.056 C 299.475 274.976,298.590 274.804,297.600 274.673 C 296.398 274.514,296.066 274.553,296.600 274.790 M339.200 274.800 C 338.376 275.064,338.341 275.126,339.000 275.154 C 339.440 275.173,340.070 275.013,340.400 274.800 C 341.101 274.347,340.614 274.347,339.200 274.800 M38.808 275.613 C 39.349 275.956,43.551 276.189,43.167 275.855 C 43.075 275.776,41.923 275.604,40.608 275.475 C 39.054 275.321,38.423 275.370,38.808 275.613 M64.400 275.600 L 63.000 275.895 64.600 275.941 C 65.480 275.967,66.470 275.813,66.800 275.600 C 67.524 275.132,66.623 275.132,64.400 275.600 M183.600 275.584 C 184.138 275.946,187.970 276.207,187.567 275.854 C 187.475 275.774,186.410 275.590,185.200 275.445 C 183.667 275.261,183.182 275.303,183.600 275.584 M210.400 275.600 L 208.600 275.880 210.600 275.934 C 211.700 275.963,212.870 275.813,213.200 275.600 C 213.903 275.146,213.323 275.146,210.400 275.600 M303.800 275.589 C 304.553 275.923,309.125 276.167,308.767 275.855 C 308.675 275.775,307.340 275.602,305.800 275.472 C 304.034 275.322,303.295 275.365,303.800 275.589 M333.000 275.600 L 331.400 275.886 333.000 275.915 C 333.880 275.931,334.960 275.789,335.400 275.600 L 336.200 275.256 335.400 275.285 C 334.960 275.301,333.880 275.442,333.000 275.600 " stroke="none" fill="#7c39bc" fill-rule="evenodd"></path></g></svg>